<svg width="132" height="14" viewBox="0 0 132 14" fill="none" xmlns="http://www.w3.org/2000/svg">
<path d="M0 1.53369H11.7114V3.32812H2.26318V5.7085H11.7114V10.2056H10.8765L9.74121 12H0V10.2056H9.44824V7.50293H0V1.53369ZM17.7173 7.50293V10.2056H24.9023V7.50293H17.7173ZM17.4243 12L16.2964 10.2056H15.4541V3.32812H16.2964L17.4243 1.53369H27.1655V3.32812H17.7173V5.7085H27.1655V10.2056H26.3306L25.1953 12H17.4243ZM33.1714 7.50293V10.2056H40.3564V7.50293H33.1714ZM32.8784 12L31.7505 10.2056H30.9082V3.32812H31.7505L32.8784 1.53369H42.6196V3.32812H33.1714V5.7085H42.6196V10.2056H41.7847L40.6494 12H32.8784ZM46.3623 1.53369H57.7808V2.99121L50.5078 12H47.5488L54.7559 3.32812H46.3623V1.53369ZM61.5234 13.0254L66.2549 0.962402H68.5181L63.7866 13.0254H61.5234ZM74.6851 1.53369H81.9287L83.064 3.33545H83.9062V5.86963H83.064L82.8076 6.27246L83.6865 7.66406H84.5288V10.2056H83.6865L82.5586 12H74.0552L72.9272 10.2056H72.085V7.66406H72.9272L73.8062 6.27246L73.5498 5.86963H72.7075V3.33545H73.5498L74.6851 1.53369ZM74.978 3.33545V5.86963H81.6357V3.33545H74.978ZM74.3481 7.66406V10.2056H82.2656V7.66406H74.3481ZM90.8569 1.53369H98.1006L99.2358 3.33545H100.078V5.86963H99.2358L98.9795 6.27246L99.8584 7.66406H100.701V10.2056H99.8584L98.7305 12H90.2271L89.0991 10.2056H88.2568V7.66406H89.0991L89.978 6.27246L89.7217 5.86963H88.8794V3.33545H89.7217L90.8569 1.53369ZM91.1499 3.33545V5.86963H97.8076V3.33545H91.1499ZM90.52 7.66406V10.2056H98.4375V7.66406H90.52ZM106.692 7.50293V10.2056H113.877V7.50293H106.692ZM106.399 12L105.271 10.2056H104.429V3.32812H105.271L106.399 1.53369H116.14V3.32812H106.692V5.7085H116.14V10.2056H115.305L114.17 12H106.399ZM129.331 6.03076V3.32812H122.146V6.03076H129.331ZM129.624 1.53369L130.752 3.32812H131.594V10.2056H130.752L129.624 12H119.883V10.2056H129.331V7.8252H119.883V3.32812H120.718L121.853 1.53369H129.624Z" fill="#FF6A00"/>
</svg>
