<svg width="143" height="74" viewBox="0 0 143 74" fill="none" xmlns="http://www.w3.org/2000/svg">
<path d="M11.4762 12.3438H42.3825L47.2262 20.0312H50.82V30.8438H47.2262L46.1325 32.5625L49.8825 38.5H53.4762V49.3438H49.8825L45.07 57H8.78875L3.97625 49.3438H0.3825V38.5H3.97625L7.72625 32.5625L6.6325 30.8438H3.03875V20.0312H6.6325L11.4762 12.3438ZM12.7262 20.0312V30.8438H41.1325V20.0312H12.7262ZM10.0387 38.5V49.3438H43.82V38.5H10.0387ZM70.7188 37.8125V49.3438H101.375V37.8125H70.7188ZM69.4688 57L64.6562 49.3438H61.0625V20H64.6562L69.4688 12.3438H111.031V20H70.7188V30.1562H111.031V49.3438H107.469L102.625 57H69.4688Z" fill="#00FF62"/>
<path d="M125.248 42.5117L126.383 44.3135H127.225V46.855H126.383L125.248 48.6494H120.978L119.842 46.8696H119V44.3281H119.842L120.978 42.5264L125.248 42.5117ZM121.271 44.3281V46.855H124.955V44.3281H121.271ZM124.588 53.0146L130.331 42.5117H132.704L126.969 53.0146H124.588ZM136.278 46.8623L137.413 48.6641H138.255V51.2056H137.413L136.278 53H132.008L130.873 51.2202H130.03V48.6787H130.873L132.008 46.877L136.278 46.8623ZM132.301 48.6787V51.2056H135.985V48.6641L132.301 48.6787Z" fill="black"/>
</svg>
