<svg width="191" height="53" viewBox="0 0 191 53" fill="none" xmlns="http://www.w3.org/2000/svg">
<path d="M27.4971 2.02246H29.1084L33.6104 9H31.8135L28.3027 3.46289L24.7969 9H23L27.4971 2.02246ZM37.3018 2.02246H43.7959V3.21875H37.4971V7.80371H43.7959V9H37.3018L36.5498 7.80371H35.9883V3.21875H36.5498L37.3018 2.02246ZM46.291 2.02246H53.2148V3.21875H50.5098V9H48.9961V3.21875H46.291V2.02246ZM55.7246 9V2.02246H57.2334V9H55.7246ZM61.0518 2.02246H66.8428L67.5996 3.21875H68.1611V7.80371H67.5996L66.8428 9H61.0518L60.2998 7.80371H59.7383V3.21875H60.2998L61.0518 2.02246ZM61.2471 3.21875V7.80371H66.6475V3.21875H61.2471ZM77.7217 2.02246H79.2305V9H77.8633L77.7217 8.87793L72.1748 4.13184V9H70.666V2.02246H72.0332L72.1748 2.14453L77.7217 6.89062V2.02246ZM98.8887 2.01758H100.544L97.458 9H95.8857L94.3232 5.45996L92.7607 9H91.1885L88.1074 2.01758H89.7578L91.9746 7.03711L93.7861 2.94043H94.8652L96.6719 7.03711L98.8887 2.01758ZM108.537 2.02246H110.046V9H108.537V6.00195H104.45V9H102.941V2.02246H104.45V4.80566H108.537V2.02246ZM112.57 2.02246H119.494V3.21875H114.079V4.78613H118.884V5.98242H114.079V7.80371H119.494V9H112.57V2.02246ZM129.06 2.02246H130.568V9H129.201L129.06 8.87793L123.513 4.13184V9H122.004V2.02246H123.371L123.513 2.14453L129.06 6.89062V2.02246ZM23 14.0225H29.4941L30.251 15.2236H30.8076V16.9131H30.251L30.0801 17.1816L30.666 18.1094H31.2275V19.8037H30.666L29.9092 21H23V14.0225ZM24.5088 15.2236V16.9131H29.2988V15.2236H24.5088ZM24.5088 18.1094V19.8037H29.7139V18.1094H24.5088ZM35.0557 14.0225H40.8467L41.6035 15.2188H42.165V19.8037H41.6035L40.8467 21H35.0557L34.3037 19.8037H33.7422V15.2188H34.3037L35.0557 14.0225ZM35.251 15.2188V19.8037H40.6514V15.2188H35.251ZM44.6699 14.0225H51.5938V15.2188H48.8887V21H47.375V15.2188H44.6699V14.0225ZM67.5068 14.0225H69.0156V21H67.6484L67.5068 20.8779L61.96 16.1318V21H60.4512V14.0225H61.8184L61.96 14.1445L67.5068 18.8906V14.0225ZM72.8584 14.0225H78.6494L79.4062 15.2188H79.9678V19.8037H79.4062L78.6494 21H72.8584L72.1064 19.8037H71.5449V15.2188H72.1064L72.8584 14.0225ZM73.0537 15.2188V19.8037H78.4541V15.2188H73.0537ZM82.4727 14.0225H89.3965V15.2188H86.6914V21H85.1777V15.2188H82.4727V14.0225ZM98.2539 14.0225H104.748L105.505 15.2188H106.062V18.002H103.928L106.452 21H104.509L102.082 18.002H99.7627V21H98.2539V14.0225ZM99.7627 15.2188V16.8057H104.553V15.2188H99.7627ZM115.349 14.0225H116.857V19.8037H116.296L115.544 21H110.114L109.362 19.8037H108.801V14.0225H110.31V19.8037H115.349V14.0225ZM126.433 14.0225H127.941V21H126.574L126.433 20.8779L120.886 16.1318V21H119.377V14.0225H120.744L120.886 14.1445L126.433 18.8906V14.0225ZM137.526 14.0225H139.035V21H137.668L137.526 20.8779L131.979 16.1318V21H130.471V14.0225H131.838L131.979 14.1445L137.526 18.8906V14.0225ZM141.564 21V14.0225H143.073V21H141.564ZM152.634 14.0225H154.143V21H152.775L152.634 20.8779L147.087 16.1318V21H145.578V14.0225H146.945L147.087 14.1445L152.634 18.8906V14.0225ZM157.99 14.0029H165.129V15.2041H158.186V19.7988H163.615V17.9971H160.314V16.7959H165.129V21H157.99L157.233 19.7988H156.672V15.2041H157.233L157.99 14.0029Z" fill="#A6A6A6"/>
<path d="M23.417 40.5439C24.7021 39.5732 26.0101 39.0879 27.3408 39.0879C28.3298 39.0879 29.1341 39.3203 29.7539 39.7852C30.3737 40.25 30.6836 40.863 30.6836 41.624C30.6836 42.1162 30.5195 42.6289 30.1914 43.1621C29.8678 43.6908 29.4076 44.265 28.8105 44.8848L26.5273 47.1406H31.0391V49H23.6699V47.4756L27.2998 43.7363C27.6234 43.4128 27.8809 43.0938 28.0723 42.7793C28.2637 42.4648 28.3594 42.1914 28.3594 41.959C28.3594 41.6445 28.2409 41.4007 28.0039 41.2275C27.7715 41.0498 27.4434 40.9609 27.0195 40.9609C26.6048 40.9609 26.1559 41.0726 25.6729 41.2959C25.1943 41.5146 24.7318 41.8154 24.2852 42.1982L23.417 40.5439ZM32.1738 44.085C32.1738 42.4854 32.4997 41.2572 33.1514 40.4004C33.8076 39.5436 34.7464 39.1152 35.9678 39.1152C37.1846 39.1152 38.1188 39.5459 38.7705 40.4072C39.4222 41.264 39.748 42.4899 39.748 44.085C39.748 45.6891 39.4222 46.9196 38.7705 47.7764C38.1188 48.6286 37.1846 49.0547 35.9678 49.0547C34.7419 49.0547 33.8031 48.6286 33.1514 47.7764C32.4997 46.9196 32.1738 45.6891 32.1738 44.085ZM34.3135 44.085C34.3135 45.2425 34.4456 46.0902 34.71 46.6279C34.9788 47.1657 35.3981 47.4346 35.9678 47.4346C36.5283 47.4346 36.9408 47.1657 37.2051 46.6279C37.4694 46.0902 37.6016 45.2425 37.6016 44.085C37.6016 42.9229 37.4694 42.0752 37.2051 41.542C36.9453 41.0088 36.5329 40.7422 35.9678 40.7422C35.3981 40.7422 34.9788 41.0088 34.71 41.542C34.4456 42.0752 34.3135 42.9229 34.3135 44.085ZM40.6982 40.5439C41.9834 39.5732 43.2913 39.0879 44.6221 39.0879C45.611 39.0879 46.4154 39.3203 47.0352 39.7852C47.6549 40.25 47.9648 40.863 47.9648 41.624C47.9648 42.1162 47.8008 42.6289 47.4727 43.1621C47.1491 43.6908 46.6888 44.265 46.0918 44.8848L43.8086 47.1406H48.3203V49H40.9512V47.4756L44.5811 43.7363C44.9046 43.4128 45.1621 43.0938 45.3535 42.7793C45.5449 42.4648 45.6406 42.1914 45.6406 41.959C45.6406 41.6445 45.5221 41.4007 45.2852 41.2275C45.0527 41.0498 44.7246 40.9609 44.3008 40.9609C43.8861 40.9609 43.4372 41.0726 42.9541 41.2959C42.4756 41.5146 42.013 41.8154 41.5664 42.1982L40.6982 40.5439ZM49.3389 46.7715V45.2334L52.4629 39.1836H54.5615L51.6357 44.9941H53.9189V42.8271H55.9492L55.9629 44.9941H57.2959V46.7715H55.9492V49H53.9189V46.7715H49.3389ZM58.3623 45.4316V44.0029H61.9717V45.4316H58.3623ZM63.3047 44.085C63.3047 42.4854 63.6305 41.2572 64.2822 40.4004C64.9385 39.5436 65.8773 39.1152 67.0986 39.1152C68.3154 39.1152 69.2497 39.5459 69.9014 40.4072C70.5531 41.264 70.8789 42.4899 70.8789 44.085C70.8789 45.6891 70.5531 46.9196 69.9014 47.7764C69.2497 48.6286 68.3154 49.0547 67.0986 49.0547C65.8727 49.0547 64.9339 48.6286 64.2822 47.7764C63.6305 46.9196 63.3047 45.6891 63.3047 44.085ZM65.4443 44.085C65.4443 45.2425 65.5765 46.0902 65.8408 46.6279C66.1097 47.1657 66.529 47.4346 67.0986 47.4346C67.6592 47.4346 68.0716 47.1657 68.3359 46.6279C68.6003 46.0902 68.7324 45.2425 68.7324 44.085C68.7324 42.9229 68.6003 42.0752 68.3359 41.542C68.0762 41.0088 67.6637 40.7422 67.0986 40.7422C66.529 40.7422 66.1097 41.0088 65.8408 41.542C65.5765 42.0752 65.4443 42.9229 65.4443 44.085ZM71.8633 42.4307C71.8633 41.4053 72.1846 40.5918 72.8271 39.9902C73.4697 39.3887 74.3242 39.0879 75.3906 39.0879C76.6667 39.0879 77.667 39.5186 78.3916 40.3799C79.1162 41.2367 79.4785 42.417 79.4785 43.9209C79.4785 45.4932 79.0843 46.7487 78.2959 47.6875C77.5075 48.6263 76.4456 49.0957 75.1104 49.0957C74.5908 49.0957 74.0553 49.0251 73.5039 48.8838C72.957 48.7425 72.4831 48.5488 72.082 48.3027L72.9092 46.7305C73.5062 47.1497 74.1966 47.3594 74.9805 47.3594C75.7962 47.3594 76.4069 47.0996 76.8125 46.5801C77.2227 46.0605 77.4209 45.3405 77.4072 44.4199C76.8923 45.2129 76.0788 45.6094 74.9668 45.6094C74.0189 45.6094 73.2646 45.3223 72.7041 44.748C72.1436 44.1693 71.8633 43.3968 71.8633 42.4307ZM73.8594 42.4512C73.8594 42.9206 73.9984 43.2897 74.2764 43.5586C74.5589 43.8275 74.944 43.9619 75.4316 43.9619C75.9603 43.9619 76.3773 43.8161 76.6826 43.5244C76.988 43.2282 77.1406 42.8545 77.1406 42.4033C77.1406 41.9795 76.9993 41.6195 76.7168 41.3232C76.4342 41.027 76.0241 40.8789 75.4863 40.8789C74.985 40.8789 74.5885 41.0179 74.2969 41.2959C74.0052 41.5739 73.8594 41.959 73.8594 42.4512ZM80.8525 45.4316V44.0029H84.4619V45.4316H80.8525ZM85.7949 44.085C85.7949 42.4854 86.1208 41.2572 86.7725 40.4004C87.4287 39.5436 88.3675 39.1152 89.5889 39.1152C90.8057 39.1152 91.7399 39.5459 92.3916 40.4072C93.0433 41.264 93.3691 42.4899 93.3691 44.085C93.3691 45.6891 93.0433 46.9196 92.3916 47.7764C91.7399 48.6286 90.8057 49.0547 89.5889 49.0547C88.363 49.0547 87.4242 48.6286 86.7725 47.7764C86.1208 46.9196 85.7949 45.6891 85.7949 44.085ZM87.9346 44.085C87.9346 45.2425 88.0667 46.0902 88.3311 46.6279C88.5999 47.1657 89.0192 47.4346 89.5889 47.4346C90.1494 47.4346 90.5618 47.1657 90.8262 46.6279C91.0905 46.0902 91.2227 45.2425 91.2227 44.085C91.2227 42.9229 91.0905 42.0752 90.8262 41.542C90.5664 41.0088 90.154 40.7422 89.5889 40.7422C89.0192 40.7422 88.5999 41.0088 88.3311 41.542C88.0667 42.0752 87.9346 42.9229 87.9346 44.085ZM94.3193 40.5439C95.6045 39.5732 96.9124 39.0879 98.2432 39.0879C99.2321 39.0879 100.036 39.3203 100.656 39.7852C101.276 40.25 101.586 40.863 101.586 41.624C101.586 42.1162 101.422 42.6289 101.094 43.1621C100.77 43.6908 100.31 44.265 99.7129 44.8848L97.4297 47.1406H101.941V49H94.5723V47.4756L98.2021 43.7363C98.5257 43.4128 98.7832 43.0938 98.9746 42.7793C99.166 42.4648 99.2617 42.1914 99.2617 41.959C99.2617 41.6445 99.1432 41.4007 98.9062 41.2275C98.6738 41.0498 98.3457 40.9609 97.9219 40.9609C97.5072 40.9609 97.0583 41.0726 96.5752 41.2959C96.0967 41.5146 95.6341 41.8154 95.1875 42.1982L94.3193 40.5439Z" fill="black"/>
<circle cx="7.5" cy="7.5" r="7.5" fill="black"/>
<path d="M4.82422 6.28809V3.98828H10.3223V5.12109L7.56348 11H5.88379L8.57422 5.31152H6.23535L6.22559 6.28809H4.82422Z" fill="white"/>
</svg>
