<svg width="106" height="42" viewBox="0 0 106 42" fill="none" xmlns="http://www.w3.org/2000/svg">
<path d="M23 3.02246H29.4941L30.251 4.22363H30.8076V5.91309H30.251L30.0801 6.18164L30.666 7.10938H31.2275V8.80371H30.666L29.9092 10H23V3.02246ZM24.5088 4.22363V5.91309H29.2988V4.22363H24.5088ZM24.5088 7.10938V8.80371H29.7139V7.10938H24.5088ZM35.0557 3.02246H40.8467L41.6035 4.21875H42.165V8.80371H41.6035L40.8467 10H35.0557L34.3037 8.80371H33.7422V4.21875H34.3037L35.0557 3.02246ZM35.251 4.21875V8.80371H40.6514V4.21875H35.251ZM44.6699 3.02246H51.5938V4.21875H48.8887V10H47.375V4.21875H44.6699V3.02246ZM67.5068 3.02246H69.0156V10H67.6484L67.5068 9.87793L61.96 5.13184V10H60.4512V3.02246H61.8184L61.96 3.14453L67.5068 7.89062V3.02246ZM76.042 3.02246H77.6533L82.1553 10H80.3584L76.8477 4.46289L73.3418 10H71.5449L76.042 3.02246ZM91.9014 3.00781H93.7031V10H92.1895V5.23438L89.5869 9.33594H88.6494L86.042 5.23438V10H84.5332V3.01758H84.543L84.5332 3.00781H86.335L89.1182 7.38281L91.9014 3.00781ZM96.2227 3.02246H103.146V4.21875H97.7314V5.78613H102.536V6.98242H97.7314V8.80371H103.146V10H96.2227V3.02246Z" fill="#A6A6A6"/>
<path d="M23.335 36.8926L24.2305 35.1426C24.6224 35.5208 25.0439 35.8102 25.4951 36.0107C25.9508 36.2067 26.4066 36.3047 26.8623 36.3047C27.4365 36.3047 27.8809 36.1794 28.1953 35.9287C28.5098 35.6735 28.667 35.318 28.667 34.8623C28.667 34.4476 28.5098 34.1263 28.1953 33.8984C27.8809 33.666 27.4411 33.5498 26.876 33.5498C25.7093 33.5498 24.8047 33.5771 24.1621 33.6318V28.1836H30.6016V30.0361H26.1924V31.7588H27.2998C28.4255 31.7588 29.3301 32.0345 30.0137 32.5859C30.6973 33.1328 31.0391 33.846 31.0391 34.7256C31.0391 35.7419 30.6813 36.5553 29.9658 37.166C29.2549 37.7767 28.3047 38.082 27.1152 38.082C26.4863 38.082 25.8301 37.9749 25.1465 37.7607C24.4629 37.542 23.859 37.2526 23.335 36.8926ZM32.2285 33.2695C32.2285 31.6973 32.625 30.4417 33.418 29.5029C34.2109 28.5596 35.2705 28.0879 36.5967 28.0879C37.1162 28.0879 37.6517 28.1608 38.2031 28.3066C38.7591 28.4479 39.2399 28.637 39.6455 28.874L38.8252 30.4531C38.2282 30.0339 37.5309 29.8242 36.7334 29.8242C35.9176 29.8242 35.3024 30.084 34.8877 30.6035C34.473 31.123 34.277 31.8385 34.2998 32.75C34.8193 31.9661 35.6374 31.5742 36.7539 31.5742C37.7109 31.5742 38.472 31.8636 39.0371 32.4424C39.6022 33.0166 39.8848 33.7868 39.8848 34.7529C39.8848 35.7783 39.5612 36.5918 38.9141 37.1934C38.2669 37.7949 37.4056 38.0957 36.3301 38.0957C35.054 38.0957 34.0514 37.6673 33.3223 36.8105C32.5931 35.9538 32.2285 34.7734 32.2285 33.2695ZM34.5801 34.7803C34.571 35.1995 34.7077 35.5573 34.9902 35.8535C35.2773 36.1452 35.6921 36.291 36.2344 36.291C36.7357 36.291 37.1322 36.1543 37.4238 35.8809C37.7201 35.6074 37.8682 35.2269 37.8682 34.7393C37.8682 34.2699 37.7269 33.9007 37.4443 33.6318C37.1663 33.363 36.7812 33.2285 36.2891 33.2285C35.7559 33.2285 35.3343 33.3766 35.0244 33.6729C34.7191 33.9645 34.571 34.3337 34.5801 34.7803ZM40.8691 33.2695C40.8691 31.6973 41.2656 30.4417 42.0586 29.5029C42.8516 28.5596 43.9111 28.0879 45.2373 28.0879C45.7568 28.0879 46.2923 28.1608 46.8438 28.3066C47.3997 28.4479 47.8805 28.637 48.2861 28.874L47.4658 30.4531C46.8688 30.0339 46.1715 29.8242 45.374 29.8242C44.5583 29.8242 43.943 30.084 43.5283 30.6035C43.1136 31.123 42.9176 31.8385 42.9404 32.75C43.46 31.9661 44.278 31.5742 45.3945 31.5742C46.3516 31.5742 47.1126 31.8636 47.6777 32.4424C48.2428 33.0166 48.5254 33.7868 48.5254 34.7529C48.5254 35.7783 48.2018 36.5918 47.5547 37.1934C46.9076 37.7949 46.0462 38.0957 44.9707 38.0957C43.6947 38.0957 42.6921 37.6673 41.9629 36.8105C41.2337 35.9538 40.8691 34.7734 40.8691 33.2695ZM43.2207 34.7803C43.2116 35.1995 43.3483 35.5573 43.6309 35.8535C43.918 36.1452 44.3327 36.291 44.875 36.291C45.3763 36.291 45.7728 36.1543 46.0645 35.8809C46.3607 35.6074 46.5088 35.2269 46.5088 34.7393C46.5088 34.2699 46.3675 33.9007 46.085 33.6318C45.807 33.363 45.4219 33.2285 44.9297 33.2285C44.3965 33.2285 43.9749 33.3766 43.665 33.6729C43.3597 33.9645 43.2116 34.3337 43.2207 34.7803ZM49.4961 31.4033V28.1836H57.1934V29.7695L53.3311 38H50.9795L54.7461 30.0361H51.4717L51.458 31.4033H49.4961Z" fill="black"/>
<circle cx="7.5" cy="7.5" r="7.5" fill="#6B65ED"/>
<path d="M5.39551 5.33105V3.98828H8.37402V11H6.79199V5.33105H5.39551Z" fill="white"/>
</svg>
