<svg width="141" height="14" viewBox="0 0 141 14" fill="none" xmlns="http://www.w3.org/2000/svg">
<path d="M0.0800781 0.0449219H13.0684L14.582 2.44727H15.6953V5.82617H14.582L14.2402 6.36328L15.4121 8.21875H16.5352V11.6074H15.4121L13.8984 14H0.0800781V0.0449219ZM3.09766 2.44727V5.82617H12.6777V2.44727H3.09766ZM3.09766 8.21875V11.6074H13.5078V8.21875H3.09766ZM24.1914 0.0449219H35.7734L37.2871 2.4375H38.4102V11.6074H37.2871L35.7734 14H24.1914L22.6875 11.6074H21.5645V2.4375H22.6875L24.1914 0.0449219ZM24.582 2.4375V11.6074H35.3828V2.4375H24.582ZM43.4199 0.0449219H57.2676V2.4375H51.8574V14H48.8301V2.4375H43.4199V0.0449219ZM74.9824 14V0.0449219H78V14H74.9824ZM97.1211 0.0449219H100.139V14H97.4043L97.1211 13.7559L86.0273 4.26367V14H83.0098V0.0449219H85.7441L86.0273 0.289062L97.1211 9.78125V0.0449219ZM105.197 0.0449219H119.045V2.4375H108.215V6.42188H117.824V8.81445H108.215V14H105.197V0.0449219ZM126.691 0.0449219H138.273L139.787 2.4375H140.91V11.6074H139.787L138.273 14H126.691L125.188 11.6074H124.064V2.4375H125.188L126.691 0.0449219ZM127.082 2.4375V11.6074H137.883V2.4375H127.082Z" fill="black"/>
</svg>
