<svg width="125" height="63" viewBox="0 0 125 63" fill="none" xmlns="http://www.w3.org/2000/svg">
<path d="M23 3.62695H30.6758L31.584 5.0625H32.3691V7.85156L24.8105 9.15234V10.5645H32.3691V12H23V7.95117L30.5586 6.5918V5.0625H23V3.62695ZM42.9219 3.61523L43.8301 5.05664H44.7324V10.5527H43.8301L42.9219 11.9883L37.1621 12L36.2598 10.5645H35.3516V5.0625H36.2598L37.1621 3.62695L42.9219 3.61523ZM37.1621 5.0625V10.5527H42.9219V5.05664L37.1621 5.0625ZM47.7383 3.62695H55.4141L56.3223 5.0625H57.1074V7.85156L49.5488 9.15234V10.5645H57.1074V12H47.7383V7.95117L55.2969 6.5918V5.0625H47.7383V3.62695ZM66.6465 3.62695H68.2344V8.70117H69.3066V10.1367H68.2344V12H66.418V10.1367H60.0898V8.88867L66.6465 3.62695ZM66.418 5.74805L63.0605 8.70117H66.418V5.74805ZM77.2344 8.61914H72.2891V7.19531H77.2344V8.61914ZM87.7461 3.61523L88.6543 5.05664H89.5566V10.5527H88.6543L87.7461 11.9883L81.9863 12L81.084 10.5645H80.1758V5.0625H81.084L81.9863 3.62695L87.7461 3.61523ZM81.9863 5.0625V10.5527H87.7461V5.05664L81.9863 5.0625ZM92.5625 3.62695H101.697V4.79297L95.8789 12H93.5117L99.2773 5.0625H92.5625V3.62695ZM109.637 8.61914H104.691V7.19531H109.637V8.61914ZM113.328 3.62695H115.619V12H113.809V5.0625H112.578L113.328 3.62695ZM119.375 3.62695H121.666V12H119.855V5.0625H118.625L119.375 3.62695Z" fill="black"/>
<path d="M23.75 27.627H26.041V36H24.2305V29.0625H23L23.75 27.627ZM29.0469 27.627H36.0898L36.998 29.0684H37.666V31.0957H36.998L36.793 31.418L37.4961 32.5312H38.1699V34.5645H37.4961L36.5879 36H29.0469V34.5645H36.3535V32.5312H30.1074V31.0957H35.8555V29.0684H29.0469V27.627ZM43.2324 34.418V36.0117H41.1758V34.418H43.2324ZM43.2324 29.6309V31.2246H41.1758V29.6309H43.2324ZM46.2617 27.627H53.9375L54.8457 29.0625H55.6309V31.8516L48.0723 33.1523V34.5645H55.6309V36H46.2617V31.9512L53.8203 30.5918V29.0625H46.2617V27.627ZM58.6133 27.627H67.748V28.793L61.9297 36H59.5625L65.3281 29.0625H58.6133V27.627ZM72.7988 34.418V36.0117H70.7422V34.418H72.7988ZM72.7988 29.6309V31.2246H70.7422V29.6309H72.7988ZM82.3848 27.627H83.9727V32.7012H85.0449V34.1367H83.9727V36H82.1562V34.1367H75.8281V32.8887L82.3848 27.627ZM82.1562 29.748L78.7988 32.7012H82.1562V29.748ZM88.0273 27.627H97.3965V29.0625H89.8379V30.9668H97.3965V34.5645H96.7285L95.8203 36H88.0273V34.5645H95.5859V32.4023H88.0273V27.627Z" fill="black"/>
<path d="M29.6973 56.6191H27.2715V58.8516H25.543V56.6191H23V55.1953H25.543V52.9688H27.2715V55.1953H29.6973V56.6191ZM40.2734 51.6152L41.1816 53.0566H42.084V58.5527H41.1816L40.2734 59.9883L34.5137 60L33.6113 58.5645H32.7031V53.0625H33.6113L34.5137 51.627L40.2734 51.6152ZM34.5137 53.0625V58.5527H40.2734V53.0566L34.5137 53.0625ZM52.6602 51.6152L53.5684 53.0566H54.4707V58.5527H53.5684L52.6602 59.9883L46.9004 60L45.998 58.5645H45.0898V53.0625H45.998L46.9004 51.627L52.6602 51.6152ZM46.9004 53.0625V58.5527H52.6602V53.0566L46.9004 53.0625ZM65.0469 51.6152L65.9551 53.0566H66.8574V58.5527H65.9551L65.0469 59.9883L59.2871 60L58.3848 58.5645H57.4766V53.0625H58.3848L59.2871 51.627L65.0469 51.6152ZM59.2871 53.0625V58.5527H65.0469V53.0566L59.2871 53.0625ZM77.4336 51.6152L78.3418 53.0566H79.2441V58.5527H78.3418L77.4336 59.9883L71.6738 60L70.7715 58.5645H69.8633V53.0625H70.7715L71.6738 51.627L77.4336 51.6152ZM71.6738 53.0625V58.5527H77.4336V53.0566L71.6738 53.0625Z" fill="black"/>
<g clip-path="url(#clip0_10_480)">
<path d="M12.1875 2.34375H2.8125C2.55362 2.34375 2.34375 2.55362 2.34375 2.8125V12.1875C2.34375 12.4464 2.55362 12.6562 2.8125 12.6562H12.1875C12.4464 12.6562 12.6562 12.4464 12.6562 12.1875V2.8125C12.6562 2.55362 12.4464 2.34375 12.1875 2.34375Z" stroke="black" stroke-linecap="round" stroke-linejoin="round"/>
<path d="M10.3125 1.40625V3.28125" stroke="black" stroke-linecap="round" stroke-linejoin="round"/>
<path d="M4.6875 1.40625V3.28125" stroke="black" stroke-linecap="round" stroke-linejoin="round"/>
<path d="M2.34375 5.15625H12.6562" stroke="black" stroke-linecap="round" stroke-linejoin="round"/>
<path d="M7.5 8.20312C7.75888 8.20312 7.96875 7.99326 7.96875 7.73438C7.96875 7.47549 7.75888 7.26562 7.5 7.26562C7.24112 7.26562 7.03125 7.47549 7.03125 7.73438C7.03125 7.99326 7.24112 8.20312 7.5 8.20312Z" fill="black"/>
<path d="M10.0781 8.20312C10.337 8.20312 10.5469 7.99326 10.5469 7.73438C10.5469 7.47549 10.337 7.26562 10.0781 7.26562C9.81924 7.26562 9.60938 7.47549 9.60938 7.73438C9.60938 7.99326 9.81924 8.20312 10.0781 8.20312Z" fill="black"/>
<path d="M4.92188 10.5469C5.18076 10.5469 5.39062 10.337 5.39062 10.0781C5.39062 9.81924 5.18076 9.60938 4.92188 9.60938C4.66299 9.60938 4.45312 9.81924 4.45312 10.0781C4.45312 10.337 4.66299 10.5469 4.92188 10.5469Z" fill="black"/>
<path d="M7.5 10.5469C7.75888 10.5469 7.96875 10.337 7.96875 10.0781C7.96875 9.81924 7.75888 9.60938 7.5 9.60938C7.24112 9.60938 7.03125 9.81924 7.03125 10.0781C7.03125 10.337 7.24112 10.5469 7.5 10.5469Z" fill="black"/>
<path d="M10.0781 10.5469C10.337 10.5469 10.5469 10.337 10.5469 10.0781C10.5469 9.81924 10.337 9.60938 10.0781 9.60938C9.81924 9.60938 9.60938 9.81924 9.60938 10.0781C9.60938 10.337 9.81924 10.5469 10.0781 10.5469Z" fill="black"/>
</g>
<g clip-path="url(#clip1_10_480)">
<path d="M7.5 37.125C10.6066 37.125 13.125 34.6066 13.125 31.5C13.125 28.3934 10.6066 25.875 7.5 25.875C4.3934 25.875 1.875 28.3934 1.875 31.5C1.875 34.6066 4.3934 37.125 7.5 37.125Z" stroke="black" stroke-linecap="round" stroke-linejoin="round"/>
<path d="M7.5 28.2188V31.5H10.7812" stroke="black" stroke-linecap="round" stroke-linejoin="round"/>
</g>
<g clip-path="url(#clip2_10_480)">
<path d="M7.5 61.125C10.6066 61.125 13.125 58.6066 13.125 55.5C13.125 52.3934 10.6066 49.875 7.5 49.875C4.3934 49.875 1.875 52.3934 1.875 55.5C1.875 58.6066 4.3934 61.125 7.5 61.125Z" stroke="black" stroke-linecap="round" stroke-linejoin="round"/>
<path d="M9.84375 55.5C9.84375 59.25 7.5 61.125 7.5 61.125C7.5 61.125 5.15625 59.25 5.15625 55.5C5.15625 51.75 7.5 49.875 7.5 49.875C7.5 49.875 9.84375 51.75 9.84375 55.5Z" stroke="black" stroke-linecap="round" stroke-linejoin="round"/>
<path d="M2.19492 53.625H12.8051" stroke="black" stroke-linecap="round" stroke-linejoin="round"/>
<path d="M2.19492 57.375H12.8051" stroke="black" stroke-linecap="round" stroke-linejoin="round"/>
</g>
<defs>
<clipPath id="clip0_10_480">
<rect width="15" height="15" fill="white"/>
</clipPath>
<clipPath id="clip1_10_480">
<rect width="15" height="15" fill="white" transform="translate(0 24)"/>
</clipPath>
<clipPath id="clip2_10_480">
<rect width="15" height="15" fill="white" transform="translate(0 48)"/>
</clipPath>
</defs>
</svg>
