<svg width="164" height="54" viewBox="0 0 164 54" fill="none" xmlns="http://www.w3.org/2000/svg">
<path d="M23 3.02246H29.4941L30.251 4.21875H30.8076V8.80371H30.251L29.4941 10H23V3.02246ZM24.5088 4.21875V8.80371H29.2988V4.21875H24.5088ZM37.8193 3.02246H39.4307L43.9326 10H42.1357L38.625 4.46289L35.1191 10H33.3223L37.8193 3.02246ZM46.3105 3.02246H53.2344V4.21875H50.5293V10H49.0156V4.21875H46.3105V3.02246ZM55.7441 3.02246H62.668V4.21875H57.2529V5.78613H62.0576V6.98242H57.2529V8.80371H62.668V10H55.7441V3.02246ZM71.5254 3.02246H78.0195L78.7764 4.21875H79.333V7.00195H77.1992L79.7236 10H77.7803L75.3535 7.00195H73.0342V10H71.5254V3.02246ZM73.0342 4.21875V5.80566H77.8242V4.21875H73.0342ZM82.0723 3.02246H88.9961V4.21875H83.5811V5.78613H88.3857V6.98242H83.5811V8.80371H88.9961V10H82.0723V3.02246ZM91.5059 3.02246H93.0146V8.80371H98.4297V10H91.5059V3.02246ZM100.959 3.02246H107.883V4.21875H102.468V5.78613H107.272V6.98242H102.468V8.80371H107.883V10H100.959V3.02246ZM114.89 3.02246H116.501L121.003 10H119.206L115.695 4.46289L112.189 10H110.393L114.89 3.02246ZM124.694 3.02246H131.188V4.21875H124.89V5.80566H131.188V8.80371H130.632L129.875 10H123.381V8.80371H129.68V7.00195H123.381V4.21875H123.942L124.694 3.02246ZM133.703 3.02246H140.627V4.21875H135.212V5.78613H140.017V6.98242H135.212V8.80371H140.627V10H133.703V3.02246ZM143.137 3.02246H149.631L150.388 4.21875H150.944V8.80371H150.388L149.631 10H143.137V3.02246ZM144.646 4.21875V8.80371H149.436V4.21875H144.646ZM23 22V15.0225H24.5088V22H23ZM34.0693 15.0225H35.5781V22H34.2109L34.0693 21.8779L28.5225 17.1318V22H27.0137V15.0225H28.3809L28.5225 15.1445L34.0693 19.8906V15.0225ZM38.1074 15.0225H45.0312V16.2188H42.3262V22H40.8125V16.2188H38.1074V15.0225ZM48.8545 15.0225H54.6455L55.4023 16.2188H55.9639V20.8037H55.4023L54.6455 22H48.8545L48.1025 20.8037H47.541V16.2188H48.1025L48.8545 15.0225ZM49.0498 16.2188V20.8037H54.4502V16.2188H49.0498ZM64.8164 15.0225H71.3105L72.0674 16.2188H72.624V19.3877H66.3252V22H64.8164V15.0225ZM66.3252 16.2188V18.1865H71.1152V16.2188H66.3252ZM75.1387 15.0225H81.6328L82.3896 16.2188H82.9463V19.002H80.8125L83.3369 22H81.3936L78.9668 19.002H76.6475V22H75.1387V15.0225ZM76.6475 16.2188V17.8057H81.4375V16.2188H76.6475ZM86.999 15.0225H92.79L93.5469 16.2188H94.1084V20.8037H93.5469L92.79 22H86.999L86.2471 20.8037H85.6855V16.2188H86.2471L86.999 15.0225ZM87.1943 16.2188V20.8037H92.5947V16.2188H87.1943ZM96.6133 15.0225H103.107L103.864 16.2188H104.421V20.8037H103.864L103.107 22H96.6133V15.0225ZM98.1221 16.2188V20.8037H102.912V16.2188H98.1221ZM113.483 15.0225H114.992V20.8037H114.431L113.679 22H108.249L107.497 20.8037H106.936V15.0225H108.444V20.8037H113.483V15.0225ZM118.825 15.0225H125.319V16.2188H119.021V20.8037H125.319V22H118.825L118.073 20.8037H117.512V16.2188H118.073L118.825 15.0225ZM127.814 15.0225H134.738V16.2188H132.033V22H130.52V16.2188H127.814V15.0225ZM137.248 22V15.0225H138.757V22H137.248ZM142.575 15.0225H148.366L149.123 16.2188H149.685V20.8037H149.123L148.366 22H142.575L141.823 20.8037H141.262V16.2188H141.823L142.575 15.0225ZM142.771 16.2188V20.8037H148.171V16.2188H142.771ZM159.245 15.0225H160.754V22H159.387L159.245 21.8779L153.698 17.1318V22H152.189V15.0225H153.557L153.698 15.1445L159.245 19.8906V15.0225Z" fill="#A6A6A6"/>
<path d="M23.417 41.5439C24.7021 40.5732 26.0101 40.0879 27.3408 40.0879C28.3298 40.0879 29.1341 40.3203 29.7539 40.7852C30.3737 41.25 30.6836 41.863 30.6836 42.624C30.6836 43.1162 30.5195 43.6289 30.1914 44.1621C29.8678 44.6908 29.4076 45.265 28.8105 45.8848L26.5273 48.1406H31.0391V50H23.6699V48.4756L27.2998 44.7363C27.6234 44.4128 27.8809 44.0938 28.0723 43.7793C28.2637 43.4648 28.3594 43.1914 28.3594 42.959C28.3594 42.6445 28.2409 42.4007 28.0039 42.2275C27.7715 42.0498 27.4434 41.9609 27.0195 41.9609C26.6048 41.9609 26.1559 42.0726 25.6729 42.2959C25.1943 42.5146 24.7318 42.8154 24.2852 43.1982L23.417 41.5439ZM32.1738 45.085C32.1738 43.4854 32.4997 42.2572 33.1514 41.4004C33.8076 40.5436 34.7464 40.1152 35.9678 40.1152C37.1846 40.1152 38.1188 40.5459 38.7705 41.4072C39.4222 42.264 39.748 43.4899 39.748 45.085C39.748 46.6891 39.4222 47.9196 38.7705 48.7764C38.1188 49.6286 37.1846 50.0547 35.9678 50.0547C34.7419 50.0547 33.8031 49.6286 33.1514 48.7764C32.4997 47.9196 32.1738 46.6891 32.1738 45.085ZM34.3135 45.085C34.3135 46.2425 34.4456 47.0902 34.71 47.6279C34.9788 48.1657 35.3981 48.4346 35.9678 48.4346C36.5283 48.4346 36.9408 48.1657 37.2051 47.6279C37.4694 47.0902 37.6016 46.2425 37.6016 45.085C37.6016 43.9229 37.4694 43.0752 37.2051 42.542C36.9453 42.0088 36.5329 41.7422 35.9678 41.7422C35.3981 41.7422 34.9788 42.0088 34.71 42.542C34.4456 43.0752 34.3135 43.9229 34.3135 45.085ZM40.6982 41.5439C41.9834 40.5732 43.2913 40.0879 44.6221 40.0879C45.611 40.0879 46.4154 40.3203 47.0352 40.7852C47.6549 41.25 47.9648 41.863 47.9648 42.624C47.9648 43.1162 47.8008 43.6289 47.4727 44.1621C47.1491 44.6908 46.6888 45.265 46.0918 45.8848L43.8086 48.1406H48.3203V50H40.9512V48.4756L44.5811 44.7363C44.9046 44.4128 45.1621 44.0938 45.3535 43.7793C45.5449 43.4648 45.6406 43.1914 45.6406 42.959C45.6406 42.6445 45.5221 42.4007 45.2852 42.2275C45.0527 42.0498 44.7246 41.9609 44.3008 41.9609C43.8861 41.9609 43.4372 42.0726 42.9541 42.2959C42.4756 42.5146 42.013 42.8154 41.5664 43.1982L40.6982 41.5439ZM49.1201 48.9473L50.0156 47.1836C50.8177 47.9583 51.7132 48.3457 52.7021 48.3457C53.3128 48.3457 53.7868 48.2227 54.124 47.9766C54.4658 47.7305 54.6367 47.3932 54.6367 46.9648C54.6367 46.5228 54.4681 46.1878 54.1309 45.96C53.7982 45.7321 53.3174 45.6182 52.6885 45.6182H51.123V44.4014L53.625 41.9951H49.6191V40.1973H56.3115V41.5303L53.4746 44.1895L54.001 44.2578C54.8486 44.3581 55.5277 44.6429 56.0381 45.1123C56.5485 45.5817 56.8037 46.1878 56.8037 46.9307C56.8037 47.8695 56.446 48.6328 55.7305 49.2207C55.015 49.804 54.0625 50.0957 52.873 50.0957C52.1895 50.0957 51.5104 49.9909 50.8359 49.7812C50.166 49.5716 49.5941 49.2936 49.1201 48.9473ZM58.3623 46.4316V45.0029H61.9717V46.4316H58.3623ZM63.3047 45.085C63.3047 43.4854 63.6305 42.2572 64.2822 41.4004C64.9385 40.5436 65.8773 40.1152 67.0986 40.1152C68.3154 40.1152 69.2497 40.5459 69.9014 41.4072C70.5531 42.264 70.8789 43.4899 70.8789 45.085C70.8789 46.6891 70.5531 47.9196 69.9014 48.7764C69.2497 49.6286 68.3154 50.0547 67.0986 50.0547C65.8727 50.0547 64.9339 49.6286 64.2822 48.7764C63.6305 47.9196 63.3047 46.6891 63.3047 45.085ZM65.4443 45.085C65.4443 46.2425 65.5765 47.0902 65.8408 47.6279C66.1097 48.1657 66.529 48.4346 67.0986 48.4346C67.6592 48.4346 68.0716 48.1657 68.3359 47.6279C68.6003 47.0902 68.7324 46.2425 68.7324 45.085C68.7324 43.9229 68.6003 43.0752 68.3359 42.542C68.0762 42.0088 67.6637 41.7422 67.0986 41.7422C66.529 41.7422 66.1097 42.0088 65.8408 42.542C65.5765 43.0752 65.4443 43.9229 65.4443 45.085ZM71.7471 48.8926L72.6426 47.1426C73.0345 47.5208 73.4561 47.8102 73.9072 48.0107C74.363 48.2067 74.8187 48.3047 75.2744 48.3047C75.8486 48.3047 76.293 48.1794 76.6074 47.9287C76.9219 47.6735 77.0791 47.318 77.0791 46.8623C77.0791 46.4476 76.9219 46.1263 76.6074 45.8984C76.293 45.666 75.8532 45.5498 75.2881 45.5498C74.1214 45.5498 73.2168 45.5771 72.5742 45.6318V40.1836H79.0137V42.0361H74.6045V43.7588H75.7119C76.8376 43.7588 77.7422 44.0345 78.4258 44.5859C79.1094 45.1328 79.4512 45.846 79.4512 46.7256C79.4512 47.7419 79.0934 48.5553 78.3779 49.166C77.667 49.7767 76.7168 50.082 75.5273 50.082C74.8984 50.082 74.2422 49.9749 73.5586 49.7607C72.875 49.542 72.2712 49.2526 71.7471 48.8926ZM80.8525 46.4316V45.0029H84.4619V46.4316H80.8525ZM85.7949 45.085C85.7949 43.4854 86.1208 42.2572 86.7725 41.4004C87.4287 40.5436 88.3675 40.1152 89.5889 40.1152C90.8057 40.1152 91.7399 40.5459 92.3916 41.4072C93.0433 42.264 93.3691 43.4899 93.3691 45.085C93.3691 46.6891 93.0433 47.9196 92.3916 48.7764C91.7399 49.6286 90.8057 50.0547 89.5889 50.0547C88.363 50.0547 87.4242 49.6286 86.7725 48.7764C86.1208 47.9196 85.7949 46.6891 85.7949 45.085ZM87.9346 45.085C87.9346 46.2425 88.0667 47.0902 88.3311 47.6279C88.5999 48.1657 89.0192 48.4346 89.5889 48.4346C90.1494 48.4346 90.5618 48.1657 90.8262 47.6279C91.0905 47.0902 91.2227 46.2425 91.2227 45.085C91.2227 43.9229 91.0905 43.0752 90.8262 42.542C90.5664 42.0088 90.154 41.7422 89.5889 41.7422C89.0192 41.7422 88.5999 42.0088 88.3311 42.542C88.0667 43.0752 87.9346 43.9229 87.9346 45.085ZM94.3535 43.4307C94.3535 42.4053 94.6748 41.5918 95.3174 40.9902C95.96 40.3887 96.8145 40.0879 97.8809 40.0879C99.1569 40.0879 100.157 40.5186 100.882 41.3799C101.606 42.2367 101.969 43.417 101.969 44.9209C101.969 46.4932 101.575 47.7487 100.786 48.6875C99.9977 49.6263 98.9359 50.0957 97.6006 50.0957C97.0811 50.0957 96.5456 50.0251 95.9941 49.8838C95.4473 49.7425 94.9733 49.5488 94.5723 49.3027L95.3994 47.7305C95.9964 48.1497 96.6868 48.3594 97.4707 48.3594C98.2865 48.3594 98.8971 48.0996 99.3027 47.5801C99.7129 47.0605 99.9111 46.3405 99.8975 45.4199C99.3825 46.2129 98.569 46.6094 97.457 46.6094C96.5091 46.6094 95.7549 46.3223 95.1943 45.748C94.6338 45.1693 94.3535 44.3968 94.3535 43.4307ZM96.3496 43.4512C96.3496 43.9206 96.4886 44.2897 96.7666 44.5586C97.0492 44.8275 97.4342 44.9619 97.9219 44.9619C98.4505 44.9619 98.8675 44.8161 99.1729 44.5244C99.4782 44.2282 99.6309 43.8545 99.6309 43.4033C99.6309 42.9795 99.4896 42.6195 99.207 42.3232C98.9245 42.027 98.5143 41.8789 97.9766 41.8789C97.4753 41.8789 97.0788 42.0179 96.7871 42.2959C96.4954 42.5739 96.3496 42.959 96.3496 43.4512Z" fill="black"/>
<circle cx="7.5" cy="7.5" r="7.5" fill="#6B65ED"/>
<path d="M4.71191 9.4082V8.30957L6.94336 3.98828H8.44238L6.35254 8.13867H7.9834V6.59082H9.43359L9.44336 8.13867H10.3955V9.4082H9.43359V11H7.9834V9.4082H4.71191Z" fill="white"/>
</svg>
