<svg width="125" height="63" viewBox="0 0 125 63" fill="none" xmlns="http://www.w3.org/2000/svg">

<g clip-path="url(#clip2_10_480)">
<path d="M7.5 61.125C10.6066 61.125 13.125 58.6066 13.125 55.5C13.125 52.3934 10.6066 49.875 7.5 49.875C4.3934 49.875 1.875 52.3934 1.875 55.5C1.875 58.6066 4.3934 61.125 7.5 61.125Z" stroke="black" stroke-linecap="round" stroke-linejoin="round"/>
<path d="M9.84375 55.5C9.84375 59.25 7.5 61.125 7.5 61.125C7.5 61.125 5.15625 59.25 5.15625 55.5C5.15625 51.75 7.5 49.875 7.5 49.875C7.5 49.875 9.84375 51.75 9.84375 55.5Z" stroke="black" stroke-linecap="round" stroke-linejoin="round"/>
<path d="M2.19492 53.625H12.8051" stroke="black" stroke-linecap="round" stroke-linejoin="round"/>
<path d="M2.19492 57.375H12.8051" stroke="black" stroke-linecap="round" stroke-linejoin="round"/>
</g>
<defs>
<clipPath id="clip0_10_480">
<rect width="15" height="15" fill="white"/>
</clipPath>
<clipPath id="clip1_10_480">
<rect width="15" height="15" fill="white" transform="translate(0 24)"/>
</clipPath>
<clipPath id="clip2_10_480">
<rect width="15" height="15" fill="white" transform="translate(0 48)"/>
</clipPath>
</defs>
</svg>
