<svg width="83" height="15" viewBox="0 0 83 15" fill="none" xmlns="http://www.w3.org/2000/svg">
<path d="M29.6973 8.61914H27.2715V10.8516H25.543V8.61914H23V7.19531H25.543V4.96875H27.2715V7.19531H29.6973V8.61914ZM40.2734 3.61523L41.1816 5.05664H42.084V10.5527H41.1816L40.2734 11.9883L34.5137 12L33.6113 10.5645H32.7031V5.0625H33.6113L34.5137 3.62695L40.2734 3.61523ZM34.5137 5.0625V10.5527H40.2734V5.05664L34.5137 5.0625ZM52.6602 3.61523L53.5684 5.05664H54.4707V10.5527H53.5684L52.6602 11.9883L46.9004 12L45.998 10.5645H45.0898V5.0625H45.998L46.9004 3.62695L52.6602 3.61523ZM46.9004 5.0625V10.5527H52.6602V5.05664L46.9004 5.0625ZM65.0469 3.61523L65.9551 5.05664H66.8574V10.5527H65.9551L65.0469 11.9883L59.2871 12L58.3848 10.5645H57.4766V5.0625H58.3848L59.2871 3.62695L65.0469 3.61523ZM59.2871 5.0625V10.5527H65.0469V5.05664L59.2871 5.0625ZM77.4336 3.61523L78.3418 5.05664H79.2441V10.5527H78.3418L77.4336 11.9883L71.6738 12L70.7715 10.5645H69.8633V5.0625H70.7715L71.6738 3.62695L77.4336 3.61523ZM71.6738 5.0625V10.5527H77.4336V5.05664L71.6738 5.0625Z" fill="black"/>
<g clip-path="url(#clip0_87_248)">
<path d="M7.5 13.125C10.6066 13.125 13.125 10.6066 13.125 7.5C13.125 4.3934 10.6066 1.875 7.5 1.875C4.3934 1.875 1.875 4.3934 1.875 7.5C1.875 10.6066 4.3934 13.125 7.5 13.125Z" stroke="black" stroke-linecap="round" stroke-linejoin="round"/>
<path d="M9.84375 7.5C9.84375 11.25 7.5 13.125 7.5 13.125C7.5 13.125 5.15625 11.25 5.15625 7.5C5.15625 3.75 7.5 1.875 7.5 1.875C7.5 1.875 9.84375 3.75 9.84375 7.5Z" stroke="black" stroke-linecap="round" stroke-linejoin="round"/>
<path d="M2.19495 5.625H12.8051" stroke="black" stroke-linecap="round" stroke-linejoin="round"/>
<path d="M2.19495 9.375H12.8051" stroke="black" stroke-linecap="round" stroke-linejoin="round"/>
</g>
<defs>
<clipPath id="clip0_87_248">
<rect width="15" height="15" fill="white"/>
</clipPath>
</defs>
</svg>
