<svg width="91" height="101" viewBox="0 0 91 101" fill="none" xmlns="http://www.w3.org/2000/svg">
<path d="M52.741 7.20489V68.8257C52.741 72.8074 49.4798 76.0306 45.4602 76.0306C41.4407 76.0306 38.1795 72.8074 38.1795 68.8257V7.20489C38.1795 3.22324 41.4407 0 45.4602 0C47.3752 0 49.2902 0.758411 50.6364 2.08563C51.793 3.60245 52.741 5.30887 52.741 7.20489Z" fill="#ED0000"/>
<path d="M81.2761 27.4924C94.3018 43.7982 94.4914 67.4985 80.3281 84.1835C64.2498 103.144 35.7146 105.798 16.5648 90.0612C-2.77467 74.1346 -5.65663 45.6942 10.4406 26.5444C10.8198 26.1651 11.199 25.5963 11.5972 25.2171C12.9434 23.7003 14.8584 22.9419 16.963 22.9419C18.4987 22.9419 20.2241 23.5107 21.5513 24.6483C24.6229 27.3028 25.0021 31.8532 22.3097 34.8869C22.1201 35.2661 21.7409 35.4557 21.5513 35.8349C10.6302 48.9175 12.3556 68.0673 25.5709 79.0643C38.7862 90.0612 58.6945 88.1652 69.6156 75.0826C79.1905 63.7064 79.0009 47.5902 70.1844 36.4037C69.2364 35.0765 68.6486 33.5597 68.6486 32.0428C68.6486 30.526 69.2174 28.8196 70.374 27.4924C73.0474 23.7003 78.4131 23.8899 81.2951 27.4924H81.2761Z" fill="#ED0000"/>
</svg>
