<svg width="16" height="16" viewBox="0 0 16 16" fill="none" xmlns="http://www.w3.org/2000/svg">
<path d="M5.93525 0.5C5.53365 1.8288 5.50006 3.24166 5.83805 4.58804C6.17603 5.93443 6.87294 7.1639 7.85452 8.14548C8.8361 9.12706 10.0656 9.82397 11.412 10.162C12.7583 10.4999 14.1712 10.4663 15.5 10.0647C15.1148 11.3314 14.4081 12.4766 13.4487 13.389C12.4894 14.3014 11.3102 14.9497 10.0258 15.2709C8.74146 15.5922 7.39582 15.5753 6.11993 15.2219C4.84405 14.8686 3.68142 14.1909 2.74528 13.2547C1.80913 12.3186 1.13139 11.156 0.778058 9.88007C0.424725 8.60418 0.407844 7.25854 0.729061 5.97419C1.05028 4.68985 1.69864 3.51058 2.61101 2.55125C3.52337 1.59192 4.66863 0.885228 5.93525 0.5Z" stroke="black" stroke-linecap="round" stroke-linejoin="round"/>
</svg>
