<svg width="92" height="78" viewBox="0 0 92 78" fill="none" xmlns="http://www.w3.org/2000/svg">
<path d="M53.2318 7.19572V68.7381C53.2318 72.7146 49.9748 75.9338 45.9603 75.9338C41.9459 75.9338 38.6888 72.7146 38.6888 68.7381V7.19572C38.6888 3.21914 41.9459 0 45.9603 0C47.8729 0 49.7854 0.757445 51.1299 2.08297C52.285 3.59786 53.2318 5.30211 53.2318 7.19572Z" fill="#ED0000"/>
<path d="M81.7306 27.4573C94.7397 43.7424 94.929 67.4125 80.7838 84.0763C64.726 103.012 36.2271 105.663 17.1017 89.9465C-2.21315 74.0402 -5.09144 45.636 10.9853 26.5105C11.364 26.1318 11.7428 25.5637 12.1404 25.185C13.4849 23.6701 15.3974 22.9127 17.4993 22.9127C19.0332 22.9127 20.7563 23.4808 22.0819 24.6169C25.1495 27.268 25.5282 31.8127 22.8393 34.8424C22.6499 35.2212 22.2712 35.4105 22.0819 35.7892C11.1747 48.8552 12.8979 67.9806 26.0963 78.9635C39.2948 89.9465 59.1777 88.0529 70.0849 74.987C79.6476 63.6253 79.4583 47.5296 70.653 36.3573C69.7062 35.0318 69.1191 33.5169 69.1191 32.002C69.1191 30.4871 69.6872 28.7829 70.8423 27.4573C73.5123 23.6701 78.8712 23.8595 81.7495 27.4573H81.7306Z" fill="#ED0000"/>
</svg>
