<svg width="107" height="74" viewBox="0 0 107 74" fill="none" xmlns="http://www.w3.org/2000/svg">
<path d="M4.195 12.3438H16.4137V57H6.7575V20H0.195L4.195 12.3438ZM64.4375 31.5312V20H33.7812V31.5312H64.4375ZM65.6875 12.3438L70.5 20H74.0938V49.3438H70.5L65.6875 57H24.125V49.3438H64.4375V39.1875H24.125V20H27.6875L32.5312 12.3438H65.6875Z" fill="#FF0000"/>
<path d="M89.2476 42.5117L90.3828 44.3135H91.2251V46.855H90.3828L89.2476 48.6494H84.9775L83.8423 46.8696H83V44.3281H83.8423L84.9775 42.5264L89.2476 42.5117ZM85.2705 44.3281V46.855H88.9546V44.3281H85.2705ZM88.5884 53.0146L94.3306 42.5117H96.7036L90.9688 53.0146H88.5884ZM100.278 46.8623L101.413 48.6641H102.255V51.2056H101.413L100.278 53H96.0078L94.8726 51.2202H94.0303V48.6787H94.8726L96.0078 46.877L100.278 46.8623ZM96.3008 48.6787V51.2056H99.9849V48.6641L96.3008 48.6787Z" fill="black"/>
</svg>
