<svg width="19" height="21" viewBox="0 0 19 21" fill="none" xmlns="http://www.w3.org/2000/svg">
<path d="M9.44456 12.9649C8.30482 12.9649 7.38231 12.9649 6.4598 12.9649C3.95993 12.8974 1.82919 14.7653 1.56895 17.2524C1.51956 17.9397 1.50999 18.6296 1.54026 19.3179C1.56735 19.6084 1.42502 19.8888 1.17487 20.0385C0.858871 20.2388 0.440375 20.1453 0.239621 19.8288C0.183325 19.7395 0.148263 19.6381 0.137641 19.5335C0.0372644 17.7389 0.0441732 15.955 1.12495 14.3824C2.16431 12.7254 3.94984 11.6834 5.90374 11.5941C8.21136 11.4757 10.5238 11.4783 12.8314 11.601C15.5447 11.882 17.7546 13.9055 18.273 16.5838C18.3983 17.5281 18.4344 18.4819 18.3813 19.4331C18.3872 19.8155 18.0823 20.1304 17.6994 20.1368C17.6946 20.1368 17.6898 20.1368 17.685 20.1368C17.2957 20.1426 16.9755 19.8314 16.9697 19.4416C16.9697 19.4342 16.9697 19.4267 16.9697 19.4198C16.9527 18.8728 16.9697 18.3258 16.9622 17.7777C16.9808 15.3129 15.1119 13.2437 12.6577 13.0121C11.5164 12.8911 10.3692 13.0021 9.44242 12.9643L9.44456 12.9649Z" fill="black"/>
<path d="M4.36734 5.38674C4.3769 2.6909 6.57084 0.512878 9.26669 0.522969C11.9625 0.532529 14.1406 2.72649 14.1305 5.42233C14.1209 8.11127 11.9381 10.2861 9.24863 10.2861C6.55279 10.2861 4.36682 8.10065 4.36682 5.40427C4.36735 5.39843 4.36734 5.39258 4.36734 5.38674ZM9.25767 8.85852C11.1505 8.87392 12.6976 7.3518 12.7125 5.45898C12.7125 5.44198 12.7125 5.42445 12.7125 5.40745C12.7188 3.49763 11.176 1.94365 9.26565 1.93727C7.35583 1.9309 5.80184 3.47374 5.79547 5.3841C5.76838 7.27586 7.27988 8.83143 9.17164 8.85852C9.20032 8.85852 9.22899 8.85905 9.25767 8.85852Z" fill="black"/>
</svg>
