<svg width="106" height="74" viewBox="0 0 106 74" fill="none" xmlns="http://www.w3.org/2000/svg">
<path d="M34.9762 12.3438H43.445V39.4062H49.1637V47.0625H43.445V57H33.7575V47.0625H0.00749969V40.4062L34.9762 12.3438ZM33.7575 23.6562L15.8512 39.4062H33.7575V23.6562ZM60.75 12.3438H72.9688V57H63.3125V20H56.75L60.75 12.3438Z" fill="#FF6A00"/>
<path d="M88.2476 42.5117L89.3828 44.3135H90.2251V46.855H89.3828L88.2476 48.6494H83.9775L82.8423 46.8696H82V44.3281H82.8423L83.9775 42.5264L88.2476 42.5117ZM84.2705 44.3281V46.855H87.9546V44.3281H84.2705ZM87.5884 53.0146L93.3306 42.5117H95.7036L89.9688 53.0146H87.5884ZM99.2778 46.8623L100.413 48.6641H101.255V51.2056H100.413L99.2778 53H95.0078L93.8726 51.2202H93.0303V48.6787H93.8726L95.0078 46.877L99.2778 46.8623ZM95.3008 48.6787V51.2056H98.9849V48.6641L95.3008 48.6787Z" fill="black"/>
</svg>
