<svg width="140" height="74" viewBox="0 0 140 74" fill="none" xmlns="http://www.w3.org/2000/svg">
<path d="M9.65625 37.8125V49.3438H40.3125V37.8125H9.65625ZM8.40625 57L3.59375 49.3438H0V20H3.59375L8.40625 12.3438H49.9688V20H9.65625V30.1562H49.9688V49.3438H46.4062L41.5625 57H8.40625ZM92.5863 12.3438H101.055V39.4062H106.774V47.0625H101.055V57H91.3675V47.0625H57.6175V40.4062L92.5863 12.3438ZM91.3675 23.6562L73.4613 39.4062H91.3675V23.6562Z" fill="#FFCC00"/>
<path d="M122.248 42.5117L123.383 44.3135H124.225V46.855H123.383L122.248 48.6494H117.978L116.842 46.8696H116V44.3281H116.842L117.978 42.5264L122.248 42.5117ZM118.271 44.3281V46.855H121.955V44.3281H118.271ZM121.588 53.0146L127.331 42.5117H129.704L123.969 53.0146H121.588ZM133.278 46.8623L134.413 48.6641H135.255V51.2056H134.413L133.278 53H129.008L127.873 51.2202H127.03V48.6787H127.873L129.008 46.877L133.278 46.8623ZM129.301 48.6787V51.2056H132.985V48.6641L129.301 48.6787Z" fill="black"/>
</svg>
