<svg width="114" height="65" viewBox="0 0 114 65" fill="none" xmlns="http://www.w3.org/2000/svg">
<path d="M27.4971 2.02246H29.1084L33.6104 9H31.8135L28.3027 3.46289L24.7969 9H23L27.4971 2.02246ZM42.0967 9H40.4854L35.9883 2.02246H37.7852L41.291 7.55957L44.8018 2.02246H46.5986L42.0967 9ZM48.9375 2.02246H55.8613V3.21875H50.4463V4.78613H55.251V5.98242H50.4463V7.80371H55.8613V9H48.9375V2.02246ZM58.3711 2.02246H64.8652L65.6221 3.21875H66.1787V6.00195H64.0449L66.5693 9H64.626L62.1992 6.00195H59.8799V9H58.3711V2.02246ZM59.8799 3.21875V4.80566H64.6699V3.21875H59.8799ZM73.415 2.02246H75.0264L79.5283 9H77.7314L74.2207 3.46289L70.7148 9H68.918L73.415 2.02246ZM83.2246 2.00293H90.3633V3.2041H83.4199V7.79883H88.8496V5.99707H85.5488V4.7959H90.3633V9H83.2246L82.4678 7.79883H81.9062V3.2041H82.4678L83.2246 2.00293ZM92.873 2.02246H99.7969V3.21875H94.3818V4.78613H99.1865V5.98242H94.3818V7.80371H99.7969V9H92.873V2.02246ZM23 14.0225H24.5088V19.8037H29.9238V21H23V14.0225ZM32.4531 14.0225H39.377V15.2188H33.9619V16.7861H38.7666V17.9824H33.9619V19.8037H39.377V21H32.4531V14.0225ZM48.9424 14.0225H50.4512V21H49.084L48.9424 20.8779L43.3955 16.1318V21H41.8867V14.0225H43.2539L43.3955 14.1445L48.9424 18.8906V14.0225ZM54.2988 14.0029H61.4375V15.2041H54.4941V19.7988H59.9238V17.9971H56.623V16.7959H61.4375V21H54.2988L53.542 19.7988H52.9805V15.2041H53.542L54.2988 14.0029ZM63.9473 14.0225H70.8711V15.2188H68.166V21H66.6523V15.2188H63.9473V14.0225ZM78.9766 14.0225H80.4854V21H78.9766V18.002H74.8896V21H73.3809V14.0225H74.8896V16.8057H78.9766V14.0225ZM90.6709 14.0225H96.4619L97.2188 15.2188H97.7803V19.8037H97.2188L96.4619 21H90.6709L89.9189 19.8037H89.3574V15.2188H89.9189L90.6709 14.0225ZM90.8662 15.2188V19.8037H96.2666V15.2188H90.8662ZM100.285 14.0225H107.209V15.2188H101.794V17.2109H106.599V18.4072H101.794V21H100.285V14.0225ZM23 26.0225H29.4941L30.251 27.2188H30.8076V30.002H28.6738L31.1982 33H29.2549L26.8281 30.002H24.5088V33H23V26.0225ZM24.5088 27.2188V28.8057H29.2988V27.2188H24.5088ZM40.0947 26.0225H41.6035V31.8037H41.042L40.29 33H34.8604L34.1084 31.8037H33.5469V26.0225H35.0557V31.8037H40.0947V26.0225ZM51.1787 26.0225H52.6875V33H51.3203L51.1787 32.8779L45.6318 28.1318V33H44.123V26.0225H45.4902L45.6318 26.1445L51.1787 30.8906V26.0225Z" fill="#A6A6A6"/>
<path d="M24.0801 61V51.1973H28.2363C29.2389 51.1973 30.1299 51.4046 30.9092 51.8193C31.693 52.2295 32.3014 52.8083 32.7344 53.5557C33.1719 54.2985 33.3906 55.1462 33.3906 56.0986C33.3906 57.0511 33.1696 57.8988 32.7275 58.6416C32.29 59.3844 31.6725 59.9632 30.875 60.3779C30.082 60.7926 29.1751 61 28.1543 61H24.0801ZM26.2881 59.1406H28.291C29.1159 59.1406 29.7949 58.8581 30.3281 58.293C30.8659 57.7279 31.1348 57.001 31.1348 56.1123C31.1348 55.2191 30.8568 54.4876 30.3008 53.918C29.7448 53.3483 29.043 53.0635 28.1953 53.0635H26.2881V59.1406ZM33.4453 61L37.6973 51.1973H39.9805L44.1709 61H41.8057L41.0332 59.0928H36.4941L35.7285 61H33.4453ZM37.2256 57.3154H40.3154L38.7773 53.5078L37.2256 57.3154ZM45.1895 61V51.1973H47.3975V61H45.1895ZM49.5781 61V51.1973H51.7861V59.0654H55.9902V61H49.5781ZM56.1816 51.1973H58.4033L60.9121 55.5928L63.3594 51.1973H65.5879L62.0195 57.835V61H59.8047V57.8896L56.1816 51.1973Z" fill="black"/>
<circle cx="7.5" cy="7.5" r="7.5" fill="black"/>
<path d="M4.65332 10.209L5.29297 8.95898C5.57292 9.22917 5.87402 9.43587 6.19629 9.5791C6.52181 9.71908 6.84733 9.78906 7.17285 9.78906C7.58301 9.78906 7.90039 9.69954 8.125 9.52051C8.34961 9.33822 8.46191 9.08431 8.46191 8.75879C8.46191 8.46257 8.34961 8.23307 8.125 8.07031C7.90039 7.9043 7.58626 7.82129 7.18262 7.82129C6.34928 7.82129 5.70312 7.84082 5.24414 7.87988V3.98828H9.84375V5.31152H6.69434V6.54199H7.48535C8.28939 6.54199 8.93555 6.73893 9.42383 7.13281C9.91211 7.52344 10.1562 8.03288 10.1562 8.66113C10.1562 9.38704 9.90072 9.9681 9.38965 10.4043C8.88184 10.8405 8.20312 11.0586 7.35352 11.0586C6.9043 11.0586 6.43555 10.9821 5.94727 10.8291C5.45898 10.6729 5.02767 10.4661 4.65332 10.209Z" fill="white"/>
</svg>
