<svg width="152" height="22" viewBox="0 0 152 22" fill="none" xmlns="http://www.w3.org/2000/svg">
<rect width="152" height="22" rx="11" fill="white"/>
<path d="M11.3387 5.9292H19.7811V7.48438H11.5926V9.54736H19.7811V13.4448H19.0575L18.0736 15H9.63121V13.4448H17.8197V11.1025H9.63121V7.48438H10.3612L11.3387 5.9292ZM21.3602 5.9292H30.3611V7.48438H26.8445V15H24.8768V7.48438H21.3602V5.9292ZM37.78 5.9292H39.8747L45.7273 15H43.3913L38.8274 7.80176L34.2698 15H31.9338L37.78 5.9292ZM47.1286 5.9292H56.1296V7.48438H52.613V15H50.6452V7.48438H47.1286V5.9292ZM66.2145 5.9292H68.1759V13.4448H67.4459L66.4684 15H59.4098L58.4322 13.4448H57.7023V5.9292H59.6637V13.4448H66.2145V5.9292ZM71.4688 5.9292H79.9112V7.48438H71.7227V9.54736H79.9112V13.4448H79.1876L78.2037 15H69.7613V13.4448H77.9498V11.1025H69.7613V7.48438H70.4913L71.4688 5.9292ZM83.7183 13.2861V15.0127H81.4902V13.2861H83.7183ZM83.7183 8.1001V9.82666H81.4902V8.1001H83.7183Z" fill="black"/>
<circle cx="96.5" cy="10.5" r="2.5" fill="#FF0000"/>
<path d="M106.012 5.9292H108.494V15H106.532V7.48438H105.199L106.012 5.9292ZM118.249 9.82666V7.48438H112.022V9.82666H118.249ZM118.503 5.9292L119.48 7.48438H120.21V13.4448H119.48L118.503 15H110.06V13.4448H118.249V11.3818H110.06V7.48438H110.784L111.768 5.9292H118.503ZM127.166 5.91016L128.149 7.47168H128.879V9.67432H128.149L127.166 11.2295H123.465L122.481 9.68701H121.751V7.48438H122.481L123.465 5.92285L127.166 5.91016ZM123.719 7.48438V9.67432H126.912V7.48438H123.719ZM126.594 15.0127L131.571 5.91016H133.627L128.657 15.0127H126.594ZM136.725 9.68066L137.709 11.2422H138.439V13.4448H137.709L136.725 15H133.024L132.041 13.4575H131.311V11.2549H132.041L133.024 9.69336L136.725 9.68066ZM133.278 11.2549V13.4448H136.471V11.2422L133.278 11.2549Z" fill="black"/>
</svg>
