<svg width="197" height="14" viewBox="0 0 197 14" fill="none" xmlns="http://www.w3.org/2000/svg">
<path d="M0 0.0449219H12.9883L14.502 2.44727H15.6152V5.82617H14.502L14.1602 6.36328L15.332 8.21875H16.4551V11.6074H15.332L13.8184 14H0V0.0449219ZM3.01758 2.44727V5.82617H12.5977V2.44727H3.01758ZM3.01758 8.21875V11.6074H13.4277V8.21875H3.01758ZM24.1113 0.0449219H35.6934L37.207 2.4375H38.3301V11.6074H37.207L35.6934 14H24.1113L22.6074 11.6074H21.4844V2.4375H22.6074L24.1113 0.0449219ZM24.502 2.4375V11.6074H35.3027V2.4375H24.502ZM43.3398 0.0449219H57.1875V2.4375H51.7773V14H48.75V2.4375H43.3398V0.0449219ZM77.5293 0.0449219H90.5176V2.4375H77.9199V5.61133H90.5176V11.6074H89.4043L87.8906 14H74.9023V11.6074H87.5V8.00391H74.9023V2.4375H76.0254L77.5293 0.0449219ZM95.5469 0.0449219H109.395V2.4375H103.984V14H100.957V2.4375H95.5469V0.0449219ZM123.408 0.0449219H126.631L135.635 14H132.041L125.02 2.92578L118.008 14H114.414L123.408 0.0449219ZM140.391 0.0449219H154.238V2.4375H148.828V14H145.801V2.4375H140.391V0.0449219ZM172.354 0.0449219H175.371V11.6074H174.248L172.744 14H161.885L160.381 11.6074H159.258V0.0449219H162.275V11.6074H172.354V0.0449219ZM183.037 0.0449219H196.025V2.4375H183.428V5.61133H196.025V11.6074H194.912L193.398 14H180.41V11.6074H193.008V8.00391H180.41V2.4375H181.533L183.037 0.0449219Z" fill="black"/>
</svg>
