<svg width="242" height="22" viewBox="0 0 242 22" fill="none" xmlns="http://www.w3.org/2000/svg">
<rect width="242" height="22" rx="11" fill="black"/>
<path d="M16.3967 5.9292H24.8391L25.823 7.49072H26.5466V9.68701H25.823L25.6008 10.0361L26.3625 11.2422H27.0925V13.4448H26.3625L25.3787 15H16.3967V5.9292ZM18.3581 7.49072V9.68701H24.5852V7.49072H18.3581ZM18.3581 11.2422V13.4448H25.1247V11.2422H18.3581ZM30.3791 5.9292H37.9074L38.8913 7.48438H39.6213V13.4448H38.8913L37.9074 15H30.3791L29.4015 13.4448H28.6716V7.48438H29.4015L30.3791 5.9292ZM30.633 7.48438V13.4448H37.6535V7.48438H30.633ZM41.1876 5.9292H50.1886V7.48438H46.672V15H44.7042V7.48438H41.1876V5.9292ZM53.4688 5.9292H61.9112V7.48438H53.7227V9.54736H61.9112V13.4448H61.1876L60.2037 15H51.7613V13.4448H59.9498V11.1025H51.7613V7.48438H52.4913L53.4688 5.9292ZM65.7183 13.2861V15.0127H63.4902V13.2861H65.7183ZM65.7183 8.1001V9.82666H63.4902V8.1001H65.7183Z" fill="white"/>
<circle cx="83.5" cy="10.5" r="2.5" fill="#FF0000"/>
<path d="M101.921 5.9165L102.905 7.47803H103.883V13.4321H102.905L101.921 14.9873L95.6817 15L94.7042 13.4448H93.7203V7.48438H94.7042L95.6817 5.9292L101.921 5.9165ZM95.6817 7.48438V13.4321H101.921V7.47803L95.6817 7.48438ZM106.262 5.9292H108.744V15H106.782V7.48438H105.449L106.262 5.9292Z" fill="white"/>
<circle cx="121.5" cy="10.5" r="2.5" fill="#FF6A00"/>
<path d="M139.921 5.9165L140.905 7.47803H141.883V13.4321H140.905L139.921 14.9873L133.682 15L132.704 13.4448H131.72V7.48438H132.704L133.682 5.9292L139.921 5.9165ZM133.682 7.48438V13.4321H139.921V7.47803L133.682 7.48438ZM144.262 5.9292H146.744V15H144.782V7.48438H143.449L144.262 5.9292Z" fill="white"/>
<circle cx="159.5" cy="10.5" r="2.5" fill="#FFCC00"/>
<path d="M177.921 5.9165L178.905 7.47803H179.883V13.4321H178.905L177.921 14.9873L171.682 15L170.704 13.4448H169.72V7.48438H170.704L171.682 5.9292L177.921 5.9165ZM171.682 7.48438V13.4321H177.921V7.47803L171.682 7.48438ZM182.262 5.9292H184.744V15H182.782V7.48438H181.449L182.262 5.9292Z" fill="white"/>
<circle cx="197.5" cy="10.5" r="2.5" fill="#00FF62"/>
<path d="M215.921 5.9165L216.905 7.47803H217.883V13.4321H216.905L215.921 14.9873L209.682 15L208.704 13.4448H207.72V7.48438H208.704L209.682 5.9292L215.921 5.9165ZM209.682 7.48438V13.4321H215.921V7.47803L209.682 7.48438ZM220.262 5.9292H222.744V15H220.782V7.48438H219.449L220.262 5.9292Z" fill="white"/>
</svg>
