<svg width="125" height="15" viewBox="0 0 125 15" fill="none" xmlns="http://www.w3.org/2000/svg">
<path d="M23 3.62695H30.6758L31.584 5.0625H32.3691V7.85156L24.8105 9.15234V10.5645H32.3691V12H23V7.95117L30.5586 6.5918V5.0625H23V3.62695ZM42.9219 3.61523L43.8301 5.05664H44.7324V10.5527H43.8301L42.9219 11.9883L37.1621 12L36.2598 10.5645H35.3516V5.0625H36.2598L37.1621 3.62695L42.9219 3.61523ZM37.1621 5.0625V10.5527H42.9219V5.05664L37.1621 5.0625ZM47.7383 3.62695H55.4141L56.3223 5.0625H57.1074V7.85156L49.5488 9.15234V10.5645H57.1074V12H47.7383V7.95117L55.2969 6.5918V5.0625H47.7383V3.62695ZM66.6465 3.62695H68.2344V8.70117H69.3066V10.1367H68.2344V12H66.418V10.1367H60.0898V8.88867L66.6465 3.62695ZM66.418 5.74805L63.0605 8.70117H66.418V5.74805ZM77.2344 8.61914H72.2891V7.19531H77.2344V8.61914ZM87.7461 3.61523L88.6543 5.05664H89.5566V10.5527H88.6543L87.7461 11.9883L81.9863 12L81.084 10.5645H80.1758V5.0625H81.084L81.9863 3.62695L87.7461 3.61523ZM81.9863 5.0625V10.5527H87.7461V5.05664L81.9863 5.0625ZM92.5625 3.62695H101.697V4.79297L95.8789 12H93.5117L99.2773 5.0625H92.5625V3.62695ZM109.637 8.61914H104.691V7.19531H109.637V8.61914ZM113.328 3.62695H115.619V12H113.809V5.0625H112.578L113.328 3.62695ZM119.375 3.62695H121.666V12H119.855V5.0625H118.625L119.375 3.62695Z" fill="black"/>
<g clip-path="url(#clip0_87_229)">
<path d="M12.1875 2.34375H2.8125C2.55362 2.34375 2.34375 2.55362 2.34375 2.8125V12.1875C2.34375 12.4464 2.55362 12.6562 2.8125 12.6562H12.1875C12.4464 12.6562 12.6562 12.4464 12.6562 12.1875V2.8125C12.6562 2.55362 12.4464 2.34375 12.1875 2.34375Z" stroke="black" stroke-linecap="round" stroke-linejoin="round"/>
<path d="M10.3125 1.40625V3.28125" stroke="black" stroke-linecap="round" stroke-linejoin="round"/>
<path d="M4.6875 1.40625V3.28125" stroke="black" stroke-linecap="round" stroke-linejoin="round"/>
<path d="M2.34375 5.15625H12.6562" stroke="black" stroke-linecap="round" stroke-linejoin="round"/>
<path d="M7.5 8.20312C7.75888 8.20312 7.96875 7.99326 7.96875 7.73438C7.96875 7.47549 7.75888 7.26562 7.5 7.26562C7.24112 7.26562 7.03125 7.47549 7.03125 7.73438C7.03125 7.99326 7.24112 8.20312 7.5 8.20312Z" fill="black"/>
<path d="M10.0781 8.20312C10.337 8.20312 10.5469 7.99326 10.5469 7.73438C10.5469 7.47549 10.337 7.26562 10.0781 7.26562C9.81924 7.26562 9.60938 7.47549 9.60938 7.73438C9.60938 7.99326 9.81924 8.20312 10.0781 8.20312Z" fill="black"/>
<path d="M4.92188 10.5469C5.18076 10.5469 5.39062 10.337 5.39062 10.0781C5.39062 9.81924 5.18076 9.60938 4.92188 9.60938C4.66299 9.60938 4.45312 9.81924 4.45312 10.0781C4.45312 10.337 4.66299 10.5469 4.92188 10.5469Z" fill="black"/>
<path d="M7.5 10.5469C7.75888 10.5469 7.96875 10.337 7.96875 10.0781C7.96875 9.81924 7.75888 9.60938 7.5 9.60938C7.24112 9.60938 7.03125 9.81924 7.03125 10.0781C7.03125 10.337 7.24112 10.5469 7.5 10.5469Z" fill="black"/>
<path d="M10.0781 10.5469C10.337 10.5469 10.5469 10.337 10.5469 10.0781C10.5469 9.81924 10.337 9.60938 10.0781 9.60938C9.81924 9.60938 9.60938 9.81924 9.60938 10.0781C9.60938 10.337 9.81924 10.5469 10.0781 10.5469Z" fill="black"/>
</g>
<defs>
<clipPath id="clip0_87_229">
<rect width="15" height="15" fill="white"/>
</clipPath>
</defs>
</svg>
