<svg width="191" height="89" viewBox="0 0 191 89" fill="none" xmlns="http://www.w3.org/2000/svg">
<path d="M23 2.02246H29.9238V3.21875H24.5088V5.21094H29.3135V6.40723H24.5088V9H23V2.02246ZM32.4336 2.02246H38.9277L39.6846 3.21875H40.2412V6.00195H38.1074L40.6318 9H38.6885L36.2617 6.00195H33.9424V9H32.4336V2.02246ZM33.9424 3.21875V4.80566H38.7324V3.21875H33.9424ZM42.9805 2.02246H49.9043V3.21875H44.4893V4.78613H49.2939V5.98242H44.4893V7.80371H49.9043V9H42.9805V2.02246ZM53.7373 1.99805H59.5576L60.3145 3.19922H60.876V7.80371H60.3145L59.8164 8.75586L61.0566 10.1035H59.1621L58.2637 9.00977H53.7373L52.9756 7.80371H52.4141V3.19922H52.9756L53.7373 1.99805ZM53.9326 3.19922V7.80371H57.3164L55.8662 5.99707H57.4092L58.9082 7.80371H59.3623V3.19922H53.9326ZM69.9482 2.02246H71.457V7.80371H70.8955L70.1436 9H64.7139L63.9619 7.80371H63.4004V2.02246H64.9092V7.80371H69.9482V2.02246ZM73.9766 2.02246H80.9004V3.21875H75.4854V4.78613H80.29V5.98242H75.4854V7.80371H80.9004V9H73.9766V2.02246ZM90.4658 2.02246H91.9746V9H90.6074L90.4658 8.87793L84.9189 4.13184V9H83.4102V2.02246H84.7773L84.9189 2.14453L90.4658 6.89062V2.02246ZM95.8174 2.02246H102.312V3.21875H96.0127V7.80371H102.312V9H95.8174L95.0654 7.80371H94.5039V3.21875H95.0654L95.8174 2.02246ZM112.004 2.02246H114.108L110.212 6.00195V9H108.703V6.00195L104.807 2.02246H106.911L109.455 4.74707L112.004 2.02246ZM124.03 2.02246H129.821L130.578 3.21875H131.14V7.80371H130.578L129.821 9H124.03L123.278 7.80371H122.717V3.21875H123.278L124.03 2.02246ZM124.226 3.21875V7.80371H129.626V3.21875H124.226ZM133.645 2.02246H140.568V3.21875H135.153V5.21094H139.958V6.40723H135.153V9H133.645V2.02246ZM24.3135 14.0225H30.1045L30.8613 15.2188H31.4229V19.8037H30.8613L30.1045 21H24.3135L23.5615 19.8037H23V15.2188H23.5615L24.3135 14.0225ZM24.5088 15.2188V19.8037H29.9092V15.2188H24.5088ZM33.9277 14.0225H40.4219L41.1787 15.2188H41.7354V18.3877H35.4365V21H33.9277V14.0225ZM35.4365 15.2188V17.1865H40.2266V15.2188H35.4365ZM44.25 14.0225H51.1738V15.2188H45.7588V16.7861H50.5635V17.9824H45.7588V19.8037H51.1738V21H44.25V14.0225ZM53.6836 14.0225H60.1777L60.9346 15.2188H61.4912V18.002H59.3574L61.8818 21H59.9385L57.5117 18.002H55.1924V21H53.6836V14.0225ZM55.1924 15.2188V16.8057H59.9824V15.2188H55.1924ZM68.7275 14.0225H70.3389L74.8408 21H73.0439L69.5332 15.4629L66.0273 21H64.2305L68.7275 14.0225ZM77.2188 14.0225H84.1426V15.2188H81.4375V21H79.9238V15.2188H77.2188V14.0225ZM86.6523 21V14.0225H88.1611V21H86.6523ZM91.9795 14.0225H97.7705L98.5273 15.2188H99.0889V19.8037H98.5273L97.7705 21H91.9795L91.2275 19.8037H90.666V15.2188H91.2275L91.9795 14.0225ZM92.1748 15.2188V19.8037H97.5752V15.2188H92.1748ZM108.649 14.0225H110.158V21H108.791L108.649 20.8779L103.103 16.1318V21H101.594V14.0225H102.961L103.103 14.1445L108.649 18.8906V14.0225Z" fill="#A6A6A6"/>
<path d="M23.376 44.085C23.376 43.3877 23.5081 42.7337 23.7725 42.123C24.0413 41.5078 24.4059 40.9814 24.8662 40.5439C25.3311 40.1064 25.887 39.7624 26.5342 39.5117C27.1813 39.2565 27.8695 39.1289 28.5986 39.1289C29.305 39.1289 30.0046 39.277 30.6973 39.5732C31.39 39.8649 31.9779 40.2591 32.4609 40.7559L31.1758 42.3213C30.8385 41.9339 30.4421 41.6263 29.9863 41.3984C29.5306 41.166 29.0771 41.0498 28.626 41.0498C27.7829 41.0498 27.0742 41.3392 26.5 41.918C25.9303 42.4922 25.6455 43.2054 25.6455 44.0576C25.6455 44.9098 25.9303 45.6276 26.5 46.2109C27.0742 46.7897 27.7829 47.0791 28.626 47.0791C29.0635 47.0791 29.5101 46.9766 29.9658 46.7715C30.4215 46.5618 30.8249 46.2816 31.1758 45.9307L32.4746 47.3457C31.9505 47.8835 31.3353 48.3096 30.6289 48.624C29.9271 48.9385 29.223 49.0957 28.5166 49.0957C27.555 49.0957 26.68 48.877 25.8916 48.4395C25.1077 48.002 24.4925 47.4004 24.0459 46.6348C23.5993 45.8691 23.376 45.0192 23.376 44.085ZM32.584 49L36.8359 39.1973H39.1191L43.3096 49H40.9443L40.1719 47.0928H35.6328L34.8672 49H32.584ZM36.3643 45.3154H39.4541L37.916 41.5078L36.3643 45.3154ZM42.332 41.0771V39.1973H50.5215V41.0771H47.5273V49H45.3193V41.0771H42.332ZM50.4736 44.085C50.4736 43.3877 50.6058 42.7337 50.8701 42.123C51.139 41.5078 51.5036 40.9814 51.9639 40.5439C52.4287 40.1064 52.9847 39.7624 53.6318 39.5117C54.279 39.2565 54.9671 39.1289 55.6963 39.1289C56.4027 39.1289 57.1022 39.277 57.7949 39.5732C58.4876 39.8649 59.0755 40.2591 59.5586 40.7559L58.2734 42.3213C57.9362 41.9339 57.5397 41.6263 57.084 41.3984C56.6283 41.166 56.1748 41.0498 55.7236 41.0498C54.8805 41.0498 54.1719 41.3392 53.5977 41.918C53.028 42.4922 52.7432 43.2054 52.7432 44.0576C52.7432 44.9098 53.028 45.6276 53.5977 46.2109C54.1719 46.7897 54.8805 47.0791 55.7236 47.0791C56.1611 47.0791 56.6077 46.9766 57.0635 46.7715C57.5192 46.5618 57.9225 46.2816 58.2734 45.9307L59.5723 47.3457C59.0482 47.8835 58.4329 48.3096 57.7266 48.624C57.0247 48.9385 56.3206 49.0957 55.6143 49.0957C54.6527 49.0957 53.7777 48.877 52.9893 48.4395C52.2054 48.002 51.5902 47.4004 51.1436 46.6348C50.6969 45.8691 50.4736 45.0192 50.4736 44.085ZM60.8984 49V39.1973H63.1064V43.2852H67.543V39.1973H69.7578V49H67.543V45.1377H63.1064V49H60.8984ZM75.1104 44.8984V39.1973H77.3252V44.8984C77.3252 45.5957 77.5303 46.1494 77.9404 46.5596C78.3506 46.9652 78.8906 47.168 79.5605 47.168C80.2259 47.168 80.7568 46.9652 81.1533 46.5596C81.5498 46.154 81.748 45.6003 81.748 44.8984V39.1973H83.9561V44.8984C83.9561 46.1927 83.5618 47.2158 82.7734 47.9678C81.985 48.7197 80.9141 49.0957 79.5605 49.0957C78.1979 49.0957 77.1156 48.7197 76.3135 47.9678C75.5114 47.2113 75.1104 46.1882 75.1104 44.8984ZM85.9316 49V39.1973H90.0879C91.3366 39.1973 92.3005 39.4935 92.9795 40.0859C93.6631 40.6784 94.0049 41.5169 94.0049 42.6016C94.0049 43.7454 93.6631 44.6318 92.9795 45.2607C92.3005 45.8851 91.3366 46.1973 90.0879 46.1973H88.1396V49H85.9316ZM88.1396 44.3516H89.9785C90.5983 44.3516 91.0745 44.2103 91.4072 43.9277C91.7399 43.6452 91.9062 43.2259 91.9062 42.6699C91.9062 42.1276 91.7399 41.7197 91.4072 41.4463C91.0791 41.1729 90.6029 41.0361 89.9785 41.0361H88.1396V44.3516ZM98.7969 49V39.1973H103.049C104.329 39.1973 105.318 39.4935 106.016 40.0859C106.717 40.6784 107.068 41.5169 107.068 42.6016C107.068 43.3535 106.911 43.9984 106.597 44.5361C106.287 45.0739 105.833 45.484 105.236 45.7666L107.321 49H104.812L103.261 46.1973H103.049H101.005V49H98.7969ZM101.005 44.3516H103.049C103.664 44.3516 104.138 44.2103 104.471 43.9277C104.803 43.6452 104.97 43.2259 104.97 42.6699C104.97 42.1322 104.803 41.7266 104.471 41.4531C104.138 41.1751 103.664 41.0361 103.049 41.0361H101.005V44.3516ZM108.743 44.8984V39.1973H110.958V44.8984C110.958 45.5957 111.163 46.1494 111.573 46.5596C111.983 46.9652 112.523 47.168 113.193 47.168C113.859 47.168 114.39 46.9652 114.786 46.5596C115.183 46.154 115.381 45.6003 115.381 44.8984V39.1973H117.589V44.8984C117.589 46.1927 117.195 47.2158 116.406 47.9678C115.618 48.7197 114.547 49.0957 113.193 49.0957C111.831 49.0957 110.748 48.7197 109.946 47.9678C109.144 47.2113 108.743 46.1882 108.743 44.8984ZM119.564 49V39.1973H121.581L126.339 45.5V39.1973H128.438V49H126.421L121.677 42.7109V49H119.564ZM23.2803 65.5166L24.1621 63.7119C24.6589 64.154 25.2285 64.5094 25.8711 64.7783C26.5182 65.0472 27.1061 65.1816 27.6348 65.1816C28.0905 65.1816 28.446 65.1019 28.7012 64.9424C28.9609 64.7783 29.0908 64.5459 29.0908 64.2451C29.0908 64.0492 29.0316 63.8783 28.9131 63.7324C28.7946 63.582 28.6328 63.459 28.4277 63.3633C28.2272 63.2676 27.9971 63.181 27.7373 63.1035C27.4775 63.0215 27.2018 62.9395 26.9102 62.8574C26.623 62.7754 26.3337 62.6888 26.042 62.5977C25.7549 62.502 25.4814 62.3812 25.2217 62.2354C24.9619 62.085 24.7295 61.9141 24.5244 61.7227C24.3239 61.5312 24.1644 61.2897 24.0459 60.998C23.9274 60.7018 23.8682 60.3691 23.8682 60C23.8682 59.1159 24.2145 58.4118 24.9072 57.8877C25.5999 57.3636 26.5182 57.1016 27.6621 57.1016C28.3366 57.1016 29.002 57.1973 29.6582 57.3887C30.3145 57.5801 30.891 57.8398 31.3877 58.168L30.5332 60C30.0182 59.6947 29.4782 59.4508 28.9131 59.2686C28.3525 59.0863 27.874 58.9951 27.4775 58.9951C27.0947 58.9951 26.7917 59.0635 26.5684 59.2002C26.3451 59.3324 26.2334 59.5283 26.2334 59.7881C26.2334 59.9795 26.2926 60.1481 26.4111 60.2939C26.5296 60.4398 26.6891 60.5605 26.8896 60.6562C27.0947 60.752 27.3271 60.8431 27.5869 60.9297C27.8467 61.0117 28.1201 61.096 28.4072 61.1826C28.6989 61.2646 28.9883 61.3558 29.2754 61.4561C29.5625 61.5518 29.8359 61.6771 30.0957 61.832C30.36 61.9824 30.5924 62.1556 30.793 62.3516C30.9935 62.5475 31.1507 62.7959 31.2646 63.0967C31.3831 63.3975 31.4424 63.737 31.4424 64.1152C31.4424 64.7396 31.2715 65.2773 30.9297 65.7285C30.5879 66.1797 30.1322 66.5169 29.5625 66.7402C28.9928 66.959 28.3411 67.0684 27.6074 67.0684C26.8145 67.0684 26.0352 66.9294 25.2695 66.6514C24.5085 66.3734 23.8454 65.9951 23.2803 65.5166ZM32.29 62.085C32.29 61.3877 32.4222 60.7337 32.6865 60.123C32.9554 59.5078 33.32 58.9814 33.7803 58.5439C34.2451 58.1064 34.8011 57.7624 35.4482 57.5117C36.0954 57.2565 36.7835 57.1289 37.5127 57.1289C38.2191 57.1289 38.9186 57.277 39.6113 57.5732C40.304 57.8649 40.8919 58.2591 41.375 58.7559L40.0898 60.3213C39.7526 59.9339 39.3561 59.6263 38.9004 59.3984C38.4447 59.166 37.9912 59.0498 37.54 59.0498C36.6969 59.0498 35.9883 59.3392 35.4141 59.918C34.8444 60.4922 34.5596 61.2054 34.5596 62.0576C34.5596 62.9098 34.8444 63.6276 35.4141 64.2109C35.9883 64.7897 36.6969 65.0791 37.54 65.0791C37.9775 65.0791 38.4242 64.9766 38.8799 64.7715C39.3356 64.5618 39.7389 64.2816 40.0898 63.9307L41.3887 65.3457C40.8646 65.8835 40.2493 66.3096 39.543 66.624C38.8411 66.9385 38.137 67.0957 37.4307 67.0957C36.4691 67.0957 35.5941 66.877 34.8057 66.4395C34.0218 66.002 33.4066 65.4004 32.96 64.6348C32.5133 63.8691 32.29 63.0192 32.29 62.085ZM42.7148 67V57.1973H44.9229V61.2852H49.3594V57.1973H51.5742V67H49.3594V63.1377H44.9229V67H42.7148ZM53.7344 67V57.1973H61.1924V59.0361H55.9424V61.1621H60.6797V62.9941H55.9424V65.168H61.3496V67H53.7344ZM63.0859 67V57.1973H67.2422C68.2448 57.1973 69.1357 57.4046 69.915 57.8193C70.6989 58.2295 71.3073 58.8083 71.7402 59.5557C72.1777 60.2985 72.3965 61.1462 72.3965 62.0986C72.3965 63.0511 72.1755 63.8988 71.7334 64.6416C71.2959 65.3844 70.6784 65.9632 69.8809 66.3779C69.0879 66.7926 68.181 67 67.1602 67H63.0859ZM65.2939 65.1406H67.2969C68.1217 65.1406 68.8008 64.8581 69.334 64.293C69.8717 63.7279 70.1406 63.001 70.1406 62.1123C70.1406 61.2191 69.8626 60.4876 69.3066 59.918C68.7507 59.3483 68.0488 59.0635 67.2012 59.0635H65.2939V65.1406ZM73.6611 62.8984V57.1973H75.876V62.8984C75.876 63.5957 76.0811 64.1494 76.4912 64.5596C76.9014 64.9652 77.4414 65.168 78.1113 65.168C78.7767 65.168 79.3076 64.9652 79.7041 64.5596C80.1006 64.154 80.2988 63.6003 80.2988 62.8984V57.1973H82.5068V62.8984C82.5068 64.1927 82.1126 65.2158 81.3242 65.9678C80.5358 66.7197 79.4648 67.0957 78.1113 67.0957C76.7487 67.0957 75.6663 66.7197 74.8643 65.9678C74.0622 65.2113 73.6611 64.1882 73.6611 62.8984ZM84.4824 67V57.1973H86.6904V65.0654H90.8945V67H84.4824ZM92.207 67V57.1973H99.665V59.0361H94.415V61.1621H99.1523V62.9941H94.415V65.168H99.8223V67H92.207ZM101.559 67V57.1973H105.715C106.717 57.1973 107.608 57.4046 108.388 57.8193C109.172 58.2295 109.78 58.8083 110.213 59.5557C110.65 60.2985 110.869 61.1462 110.869 62.0986C110.869 63.0511 110.648 63.8988 110.206 64.6416C109.769 65.3844 109.151 65.9632 108.354 66.3779C107.561 66.7926 106.654 67 105.633 67H101.559ZM103.767 65.1406H105.77C106.594 65.1406 107.273 64.8581 107.807 64.293C108.344 63.7279 108.613 63.001 108.613 62.1123C108.613 61.2191 108.335 60.4876 107.779 59.918C107.223 59.3483 106.521 59.0635 105.674 59.0635H103.767V65.1406ZM22.959 85L27.2109 75.1973H29.4941L33.6846 85H31.3193L30.5469 83.0928H26.0078L25.2422 85H22.959ZM26.7393 81.3154H29.8291L28.291 77.5078L26.7393 81.3154ZM33.7256 80.085C33.7256 79.3877 33.8577 78.7337 34.1221 78.123C34.391 77.5078 34.7555 76.9814 35.2158 76.5439C35.6807 76.1064 36.2367 75.7624 36.8838 75.5117C37.5309 75.2565 38.2191 75.1289 38.9482 75.1289C39.6546 75.1289 40.3542 75.277 41.0469 75.5732C41.7396 75.8649 42.3275 76.2591 42.8105 76.7559L41.5254 78.3213C41.1882 77.9339 40.7917 77.6263 40.3359 77.3984C39.8802 77.166 39.4268 77.0498 38.9756 77.0498C38.1325 77.0498 37.4238 77.3392 36.8496 77.918C36.2799 78.4922 35.9951 79.2054 35.9951 80.0576C35.9951 80.9098 36.2799 81.6276 36.8496 82.2109C37.4238 82.7897 38.1325 83.0791 38.9756 83.0791C39.4131 83.0791 39.8597 82.9766 40.3154 82.7715C40.7712 82.5618 41.1745 82.2816 41.5254 81.9307L42.8242 83.3457C42.3001 83.8835 41.6849 84.3096 40.9785 84.624C40.2767 84.9385 39.5726 85.0957 38.8662 85.0957C37.9046 85.0957 37.0296 84.877 36.2412 84.4395C35.4574 84.002 34.8421 83.4004 34.3955 82.6348C33.9489 81.8691 33.7256 81.0192 33.7256 80.085ZM43.2412 80.085C43.2412 79.3877 43.3734 78.7337 43.6377 78.123C43.9066 77.5078 44.2712 76.9814 44.7314 76.5439C45.1963 76.1064 45.7523 75.7624 46.3994 75.5117C47.0465 75.2565 47.7347 75.1289 48.4639 75.1289C49.1702 75.1289 49.8698 75.277 50.5625 75.5732C51.2552 75.8649 51.8431 76.2591 52.3262 76.7559L51.041 78.3213C50.7038 77.9339 50.3073 77.6263 49.8516 77.3984C49.3958 77.166 48.9424 77.0498 48.4912 77.0498C47.6481 77.0498 46.9395 77.3392 46.3652 77.918C45.7956 78.4922 45.5107 79.2054 45.5107 80.0576C45.5107 80.9098 45.7956 81.6276 46.3652 82.2109C46.9395 82.7897 47.6481 83.0791 48.4912 83.0791C48.9287 83.0791 49.3753 82.9766 49.8311 82.7715C50.2868 82.5618 50.6901 82.2816 51.041 81.9307L52.3398 83.3457C51.8158 83.8835 51.2005 84.3096 50.4941 84.624C49.7923 84.9385 49.0882 85.0957 48.3818 85.0957C47.4202 85.0957 46.5452 84.877 45.7568 84.4395C44.973 84.002 44.3577 83.4004 43.9111 82.6348C43.4645 81.8691 43.2412 81.0192 43.2412 80.085ZM52.7568 80.0986C52.7568 79.1598 52.9847 78.3122 53.4404 77.5557C53.9007 76.7946 54.5319 76.1999 55.334 75.7715C56.1406 75.3431 57.0361 75.1289 58.0205 75.1289C59.0049 75.1289 59.8981 75.3454 60.7002 75.7783C61.5068 76.2067 62.138 76.8014 62.5938 77.5625C63.054 78.319 63.2842 79.1644 63.2842 80.0986C63.2842 81.0283 63.054 81.876 62.5938 82.6416C62.138 83.4027 61.5068 84.002 60.7002 84.4395C59.8981 84.877 59.0049 85.0957 58.0205 85.0957C57.0361 85.0957 56.1406 84.8792 55.334 84.4463C54.5319 84.0088 53.9007 83.4095 53.4404 82.6484C52.9847 81.8828 52.7568 81.0329 52.7568 80.0986ZM55.0264 80.0986C55.0264 80.5225 55.1061 80.9258 55.2656 81.3086C55.4297 81.6868 55.6462 82.0127 55.915 82.2861C56.1885 82.555 56.5098 82.7692 56.8789 82.9287C57.2526 83.0882 57.6423 83.168 58.0479 83.168C58.8727 83.168 59.5745 82.8717 60.1533 82.2793C60.7321 81.6823 61.0215 80.9554 61.0215 80.0986C61.0215 79.2419 60.7321 78.5218 60.1533 77.9385C59.5745 77.3551 58.8727 77.0635 58.0479 77.0635C57.2139 77.0635 56.5007 77.3574 55.9082 77.9453C55.3203 78.5286 55.0264 79.2464 55.0264 80.0986ZM64.7402 85V75.1973H68.9922C70.2728 75.1973 71.2617 75.4935 71.959 76.0859C72.6608 76.6784 73.0117 77.5169 73.0117 78.6016C73.0117 79.3535 72.8545 79.9984 72.54 80.5361C72.2301 81.0739 71.7767 81.484 71.1797 81.7666L73.2646 85H70.7559L69.2041 82.1973H68.9922H66.9482V85H64.7402ZM66.9482 80.3516H68.9922C69.6074 80.3516 70.0814 80.2103 70.4141 79.9277C70.7467 79.6452 70.9131 79.2259 70.9131 78.6699C70.9131 78.1322 70.7467 77.7266 70.4141 77.4531C70.0814 77.1751 69.6074 77.0361 68.9922 77.0361H66.9482V80.3516ZM74.8711 85V75.1973H79.0273C80.0299 75.1973 80.9209 75.4046 81.7002 75.8193C82.484 76.2295 83.0924 76.8083 83.5254 77.5557C83.9629 78.2985 84.1816 79.1462 84.1816 80.0986C84.1816 81.0511 83.9606 81.8988 83.5186 82.6416C83.0811 83.3844 82.4635 83.9632 81.666 84.3779C80.873 84.7926 79.9661 85 78.9453 85H74.8711ZM77.0791 83.1406H79.082C79.9069 83.1406 80.5859 82.8581 81.1191 82.293C81.6569 81.7279 81.9258 81.001 81.9258 80.1123C81.9258 79.2191 81.6478 78.4876 81.0918 77.918C80.5358 77.3483 79.834 77.0635 78.9863 77.0635H77.0791V83.1406ZM85.6309 85V75.1973H87.8389V85H85.6309ZM90.0195 85V75.1973H92.0361L96.7939 81.5V75.1973H98.8926V85H96.876L92.1318 78.7109V85H90.0195ZM100.349 80.0986C100.349 79.1689 100.581 78.3258 101.046 77.5693C101.511 76.8083 102.151 76.2113 102.967 75.7783C103.787 75.3454 104.699 75.1289 105.701 75.1289C106.421 75.1289 107.13 75.2588 107.827 75.5186C108.529 75.7738 109.131 76.1201 109.632 76.5576L108.388 78.1367C108.023 77.7995 107.602 77.5352 107.123 77.3438C106.649 77.1478 106.175 77.0498 105.701 77.0498C104.831 77.0498 104.099 77.3438 103.507 77.9316C102.914 78.515 102.618 79.2373 102.618 80.0986C102.618 80.9645 102.917 81.6937 103.514 82.2861C104.111 82.874 104.844 83.168 105.715 83.168C106.294 83.168 106.932 82.9902 107.629 82.6348V80.0576H109.55V83.8242C109.026 84.207 108.401 84.5146 107.677 84.7471C106.952 84.9795 106.25 85.0957 105.571 85.0957C104.596 85.0957 103.71 84.8792 102.912 84.4463C102.115 84.0088 101.488 83.4095 101.032 82.6484C100.576 81.8828 100.349 81.0329 100.349 80.0986ZM111.484 85V75.1973H113.692V83.0654H117.896V85H111.484ZM118.088 75.1973H120.31L122.818 79.5928L125.266 75.1973H127.494L123.926 81.835V85H121.711V81.8896L118.088 75.1973Z" fill="black"/>
<circle cx="7.5" cy="7.5" r="7.5" fill="#6B65ED"/>
<path d="M4.83398 7.62109C4.83398 6.49805 5.11719 5.60124 5.68359 4.93066C6.25 4.25684 7.00684 3.91992 7.9541 3.91992C8.3252 3.91992 8.70768 3.97201 9.10156 4.07617C9.4987 4.17708 9.84212 4.31217 10.1318 4.48145L9.5459 5.60938C9.11947 5.3099 8.62142 5.16016 8.05176 5.16016C7.46908 5.16016 7.02962 5.3457 6.7334 5.7168C6.43717 6.08789 6.2972 6.59896 6.31348 7.25C6.68457 6.6901 7.26888 6.41016 8.06641 6.41016C8.75 6.41016 9.29362 6.61686 9.69727 7.03027C10.1009 7.44043 10.3027 7.99056 10.3027 8.68066C10.3027 9.41309 10.0716 9.99414 9.60938 10.4238C9.14714 10.8535 8.5319 11.0684 7.76367 11.0684C6.85221 11.0684 6.13607 10.7624 5.61523 10.1504C5.0944 9.53841 4.83398 8.69531 4.83398 7.62109ZM6.51367 8.7002C6.50716 8.99967 6.60482 9.25521 6.80664 9.4668C7.01172 9.67513 7.30794 9.7793 7.69531 9.7793C8.05339 9.7793 8.33659 9.68164 8.54492 9.48633C8.75651 9.29102 8.8623 9.01921 8.8623 8.6709C8.8623 8.33561 8.76139 8.07194 8.55957 7.87988C8.361 7.68783 8.08594 7.5918 7.73438 7.5918C7.35352 7.5918 7.05241 7.69759 6.83105 7.90918C6.61296 8.11751 6.50716 8.38118 6.51367 8.7002Z" fill="white"/>
</svg>
