<svg width="19" height="20" viewBox="0 0 19 20" fill="none" xmlns="http://www.w3.org/2000/svg">
<path d="M9.52795 12.6823C8.36621 12.6823 7.42588 12.6823 6.48554 12.6823C3.93738 12.6135 1.76548 14.5175 1.50021 17.0527C1.44987 17.7532 1.44011 18.4564 1.47097 19.158C1.49858 19.4541 1.3535 19.7399 1.09852 19.8926C0.776417 20.0967 0.349837 20.0014 0.145205 19.6788C0.0878209 19.5878 0.0520824 19.4844 0.0412553 19.3778C-0.0610608 17.5485 -0.0540185 15.7301 1.04764 14.1272C2.10707 12.4381 3.9271 11.376 5.91874 11.2851C8.27093 11.1643 10.628 11.167 12.9802 11.2921C15.746 11.5785 17.9985 13.641 18.5269 16.3711C18.6547 17.3336 18.6915 18.3059 18.6373 19.2754C18.6433 19.6652 18.3326 19.9863 17.9423 19.9928C17.9374 19.9928 17.9325 19.9928 17.9276 19.9928C17.5308 19.9987 17.2044 19.6815 17.1984 19.2841C17.1984 19.2765 17.1984 19.269 17.1984 19.2619C17.1811 18.7043 17.1984 18.1467 17.1909 17.5881C17.2098 15.0756 15.3047 12.9665 12.8031 12.7305C11.6398 12.607 10.4704 12.7202 9.52577 12.6817L9.52795 12.6823Z" fill="black"/>
<path d="M4.35254 4.95776C4.36228 2.20984 6.5986 -0.0102501 9.34652 3.55967e-05C12.0944 0.00977999 14.3145 2.24612 14.3043 4.99404C14.2945 7.73492 12.0695 9.95176 9.32812 9.95176C6.5802 9.95176 4.35201 7.7241 4.35201 4.97564C4.35255 4.96968 4.35254 4.96371 4.35254 4.95776ZM9.33734 8.49661C11.2667 8.51231 12.8437 6.96078 12.8589 5.03139C12.8589 5.01407 12.8589 4.9962 12.8589 4.97887C12.8654 3.03216 11.2927 1.44816 9.34547 1.44166C7.39875 1.43516 5.81475 3.00781 5.80825 4.95507C5.78064 6.88337 7.32134 8.469 9.24964 8.49661C9.27888 8.49661 9.3081 8.49715 9.33734 8.49661Z" fill="black"/>
</svg>
