<svg width="17" height="24" viewBox="0 0 17 24" fill="none" xmlns="http://www.w3.org/2000/svg">
<path d="M9.27151 0.900162C9.87325 0.987261 10.4575 1.17156 11.0002 1.4456C12.6286 2.2449 13.7131 3.84563 13.8517 5.65401C13.9223 6.82348 13.9335 7.99561 13.8851 9.16615C13.8862 9.58465 13.5479 9.92455 13.1294 9.92508C13.1124 9.92508 13.0954 9.92455 13.0784 9.92349C12.6541 9.90915 12.3221 9.55331 12.337 9.12897C12.337 9.12738 12.337 9.12578 12.337 9.12472C12.3317 8.14326 12.337 7.16179 12.337 6.17874C12.3519 4.12393 10.698 2.44566 8.64269 2.43079C6.77482 2.41751 5.18632 3.7904 4.93033 5.64074C4.88572 6.24672 4.87404 6.85428 4.89422 7.46132C4.88466 8.02534 4.89422 8.58937 4.89422 9.15286C4.9314 9.58198 4.6138 9.96066 4.18468 9.99783C3.75555 10.035 3.37688 9.71742 3.3397 9.28829C3.33598 9.24315 3.33598 9.198 3.3397 9.15286C3.3397 8.15705 3.33386 7.16126 3.3397 6.16493C3.33705 3.53494 5.26758 1.30273 7.87048 0.925656C7.89916 0.919283 7.92731 0.910265 7.95493 0.899643H9.2731L9.27151 0.900162Z" fill="black"/>
<path d="M8.59811 23.416C6.62084 23.416 4.64357 23.416 2.6663 23.416C1.42035 23.4542 0.379957 22.4749 0.341718 21.2295C0.340656 21.1875 0.340105 21.145 0.341167 21.1031C0.337449 18.6276 0.337449 16.1522 0.341167 13.6767C0.324172 12.5763 1.10222 11.6235 2.18354 11.4201C2.42147 11.3782 2.66258 11.3596 2.90423 11.3643C6.71272 11.3612 10.5212 11.3596 14.3297 11.3601C15.1571 11.2942 15.9607 11.6586 16.4567 12.3246C16.7334 12.699 16.8832 13.152 16.8843 13.6173C16.8885 16.1362 16.8928 18.6563 16.8843 21.1753C16.88 22.4165 15.8704 23.4192 14.6298 23.4149C14.6271 23.4149 14.6239 23.4149 14.6213 23.4149C12.6148 23.4149 10.6072 23.4149 8.60077 23.4149H8.59811V23.416ZM8.61565 21.8891H14.3494C14.4811 21.8928 14.6128 21.8822 14.7424 21.8577C15.0812 21.8014 15.3292 21.5072 15.3266 21.1636C15.3313 20.9437 15.3266 20.7244 15.3266 20.5045C15.3266 18.2495 15.3266 15.9939 15.3266 13.7383C15.3515 13.4707 15.2336 13.2094 15.0169 13.0506C14.8337 12.9406 14.6197 12.8918 14.4067 12.912C10.5117 12.9205 6.61607 12.8966 2.72102 12.939C2.14637 12.9449 1.89039 13.1966 1.88933 13.7697C1.88933 15.2414 1.88933 16.713 1.88933 18.1852C1.88933 19.1667 1.88933 20.1481 1.88933 21.1312C1.86437 21.5008 2.13629 21.8243 2.50487 21.8636C2.62755 21.8832 2.75182 21.8923 2.87609 21.8907C4.78751 21.8907 6.69838 21.8907 8.60926 21.8907L8.61565 21.8891Z" fill="black"/>
<path d="M9.37398 17.4231C9.37398 17.6754 9.37929 17.9351 9.37398 18.19C9.36866 18.5889 9.05213 18.9144 8.65328 18.9309C8.24646 18.9659 7.88796 18.6643 7.85291 18.2574C7.80033 17.7046 7.80033 17.148 7.85291 16.5951C7.89434 16.2467 8.17213 15.9743 8.52106 15.9397C8.84237 15.9063 9.15093 16.0736 9.29858 16.3604C9.35169 16.4645 9.37823 16.5802 9.37505 16.6971C9.37505 16.9377 9.37505 17.1793 9.37505 17.4199L9.37398 17.4231Z" fill="black"/>
</svg>
