<svg width="108" height="108" viewBox="0 0 108 108" fill="none" xmlns="http://www.w3.org/2000/svg">
<path fill-rule="evenodd" clip-rule="evenodd" d="M54 6.75C48.4491 6.75 43.875 11.3241 43.875 16.875V23.625H40.5C34.9491 23.625 30.375 28.1991 30.375 33.75V54C30.375 59.5509 34.9491 64.125 40.5 64.125H67.5C73.0509 64.125 77.625 59.5509 77.625 54V33.75C77.625 28.1991 73.0509 23.625 67.5 23.625H64.125V16.875C64.125 11.3241 59.5509 6.75 54 6.75ZM54 13.5C55.9281 13.5 57.375 14.9469 57.375 16.875V23.625H50.625V16.875C50.625 14.9469 52.0719 13.5 54 13.5ZM54 33.75C54.8864 33.75 55.7642 33.9246 56.5831 34.2639C57.4021 34.6031 58.1462 35.1002 58.773 35.727C59.3998 36.3538 59.897 37.0979 60.2362 37.9168C60.5754 38.7358 60.75 39.6136 60.75 40.5C60.7491 41.684 60.4367 42.8469 59.8443 43.872C59.252 44.8971 58.4003 45.7483 57.375 46.3403V50.625C57.375 51.5201 57.0194 52.3785 56.3865 53.0114C55.7536 53.6444 54.8951 54 54 54C53.1049 54 52.2464 53.6444 51.6135 53.0114C50.9806 52.3785 50.625 51.5201 50.625 50.625V46.3271C49.6016 45.7363 48.7512 44.8871 48.1589 43.8645C47.5667 42.8419 47.2532 41.6817 47.25 40.5C47.25 39.6136 47.4246 38.7358 47.7638 37.9168C48.103 37.0979 48.6002 36.3538 49.227 35.727C49.8538 35.1002 50.5979 34.6031 51.4169 34.2639C52.2358 33.9246 53.1136 33.75 54 33.75ZM10.125 94.5C9.22989 94.5 8.37145 94.8556 7.73851 95.4886C7.10558 96.1215 6.75 96.9799 6.75 97.875C6.75 98.7701 7.10558 99.6285 7.73851 100.261C8.37145 100.894 9.22989 101.25 10.125 101.25H30.375C31.2701 101.25 32.1286 100.894 32.7615 100.261C33.3944 99.6285 33.75 98.7701 33.75 97.875C33.75 96.9799 33.3944 96.1215 32.7615 95.4886C32.1286 94.8556 31.2701 94.5 30.375 94.5H10.125ZM77.625 94.5C76.7299 94.5 75.8714 94.8556 75.2385 95.4886C74.6056 96.1215 74.25 96.9799 74.25 97.875C74.25 98.7701 74.6056 99.6285 75.2385 100.261C75.8714 100.894 76.7299 101.25 77.625 101.25H97.875C98.7701 101.25 99.6286 100.894 100.261 100.261C100.894 99.6285 101.25 98.7701 101.25 97.875C101.25 96.9799 100.894 96.1215 100.261 95.4886C99.6286 94.8556 98.7701 94.5 97.875 94.5H77.625ZM82.9775 72.8525C82.0825 72.8527 81.2241 73.2083 80.5913 73.8413C79.9585 74.4742 79.6031 75.3326 79.6031 76.2275C79.6031 77.1225 79.9585 77.9809 80.5913 78.6138L82.9775 81L80.5913 83.3862C79.9585 84.0191 79.6031 84.8775 79.6031 85.7725C79.6031 86.6674 79.9585 87.5258 80.5913 88.1587C81.2242 88.7915 82.0826 89.1469 82.9775 89.1469C83.8725 89.1469 84.7309 88.7915 85.3638 88.1587L87.75 85.7725L90.1362 88.1587C90.7691 88.7915 91.6275 89.1469 92.5225 89.1469C93.4174 89.1469 94.2758 88.7915 94.9087 88.1587C95.5415 87.5258 95.8969 86.6674 95.8969 85.7725C95.8969 84.8775 95.5415 84.0191 94.9087 83.3862L92.5225 81L94.9087 78.6138C95.5415 77.9809 95.8969 77.1225 95.8969 76.2275C95.8969 75.3326 95.5415 74.4742 94.9087 73.8413C94.2759 73.2083 93.4175 72.8527 92.5225 72.8525C91.6274 72.8527 90.7691 73.2083 90.1362 73.8413L87.75 76.2275L85.3638 73.8413C84.7309 73.2083 83.8726 72.8527 82.9775 72.8525ZM49.2275 72.8525C48.3325 72.8527 47.4741 73.2083 46.8413 73.8413C46.2085 74.4742 45.8531 75.3326 45.8531 76.2275C45.8531 77.1225 46.2085 77.9809 46.8413 78.6138L49.2275 81L46.8413 83.3862C46.2085 84.0191 45.8531 84.8775 45.8531 85.7725C45.8531 86.6674 46.2085 87.5258 46.8413 88.1587C47.4742 88.7915 48.3326 89.1469 49.2275 89.1469C50.1225 89.1469 50.9809 88.7915 51.6138 88.1587L54 85.7725L56.3862 88.1587C57.0191 88.7915 57.8775 89.1469 58.7725 89.1469C59.6674 89.1469 60.5258 88.7915 61.1587 88.1587C61.7915 87.5258 62.1469 86.6674 62.1469 85.7725C62.1469 84.8775 61.7915 84.0191 61.1587 83.3862L58.7725 81L61.1587 78.6138C61.7915 77.9809 62.1469 77.1225 62.1469 76.2275C62.1469 75.3326 61.7915 74.4742 61.1587 73.8413C60.5259 73.2083 59.6675 72.8527 58.7725 72.8525C57.8774 72.8527 57.0191 73.2083 56.3862 73.8413L54 76.2275L51.6138 73.8413C50.9809 73.2083 50.1226 72.8527 49.2275 72.8525ZM15.4775 72.8525C14.5825 72.8527 13.7241 73.2083 13.0913 73.8413C12.4585 74.4742 12.1031 75.3326 12.1031 76.2275C12.1031 77.1225 12.4585 77.9809 13.0913 78.6138L15.4775 81L13.0913 83.3862C12.4585 84.0191 12.1031 84.8775 12.1031 85.7725C12.1031 86.6674 12.4585 87.5258 13.0913 88.1587C13.7242 88.7915 14.5826 89.1469 15.4775 89.1469C16.3725 89.1469 17.2309 88.7915 17.8638 88.1587L20.25 85.7725L22.6362 88.1587C23.2691 88.7915 24.1275 89.1469 25.0225 89.1469C25.9174 89.1469 26.7758 88.7915 27.4087 88.1587C28.0415 87.5258 28.3969 86.6674 28.3969 85.7725C28.3969 84.8775 28.0415 84.0191 27.4087 83.3862L25.0225 81L27.4087 78.6138C28.0415 77.9809 28.3969 77.1225 28.3969 76.2275C28.3969 75.3326 28.0415 74.4742 27.4087 73.8413C26.7759 73.2083 25.9175 72.8527 25.0225 72.8525C24.1274 72.8527 23.2691 73.2083 22.6362 73.8413L20.25 76.2275L17.8638 73.8413C17.2309 73.2083 16.3726 72.8527 15.4775 72.8525ZM43.875 94.5C42.9799 94.5 42.1214 94.8556 41.4885 95.4886C40.8556 96.1215 40.5 96.9799 40.5 97.875C40.5 98.7701 40.8556 99.6285 41.4885 100.261C42.1214 100.894 42.9799 101.25 43.875 101.25H64.125C65.0201 101.25 65.8786 100.894 66.5115 100.261C67.1444 99.6285 67.5 98.7701 67.5 97.875C67.5 96.9799 67.1444 96.1215 66.5115 95.4886C65.8786 94.8556 65.0201 94.5 64.125 94.5H43.875Z" fill="#0EE836"/>
</svg>
