<svg width="101" height="15" viewBox="0 0 101 15" fill="none" xmlns="http://www.w3.org/2000/svg">
<path d="M23.75 3.62695H26.041V12H24.2305V5.0625H23L23.75 3.62695ZM29.0469 3.62695H36.0898L36.998 5.06836H37.666V7.0957H36.998L36.793 7.41797L37.4961 8.53125H38.1699V10.5645H37.4961L36.5879 12H29.0469V10.5645H36.3535V8.53125H30.1074V7.0957H35.8555V5.06836H29.0469V3.62695ZM43.2324 10.418V12.0117H41.1758V10.418H43.2324ZM43.2324 5.63086V7.22461H41.1758V5.63086H43.2324ZM46.2617 3.62695H53.9375L54.8457 5.0625H55.6309V7.85156L48.0723 9.15234V10.5645H55.6309V12H46.2617V7.95117L53.8203 6.5918V5.0625H46.2617V3.62695ZM58.6133 3.62695H67.748V4.79297L61.9297 12H59.5625L65.3281 5.0625H58.6133V3.62695ZM72.7988 10.418V12.0117H70.7422V10.418H72.7988ZM72.7988 5.63086V7.22461H70.7422V5.63086H72.7988ZM82.3848 3.62695H83.9727V8.70117H85.0449V10.1367H83.9727V12H82.1562V10.1367H75.8281V8.88867L82.3848 3.62695ZM82.1562 5.74805L78.7988 8.70117H82.1562V5.74805ZM88.0273 3.62695H97.3965V5.0625H89.8379V6.9668H97.3965V10.5645H96.7285L95.8203 12H88.0273V10.5645H95.5859V8.40234H88.0273V3.62695Z" fill="black"/>
<g clip-path="url(#clip0_87_242)">
<path d="M7.5 13.125C10.6066 13.125 13.125 10.6066 13.125 7.5C13.125 4.3934 10.6066 1.875 7.5 1.875C4.3934 1.875 1.875 4.3934 1.875 7.5C1.875 10.6066 4.3934 13.125 7.5 13.125Z" stroke="black" stroke-linecap="round" stroke-linejoin="round"/>
<path d="M7.5 4.21875V7.5H10.7812" stroke="black" stroke-linecap="round" stroke-linejoin="round"/>
</g>
<defs>
<clipPath id="clip0_87_242">
<rect width="15" height="15" fill="white"/>
</clipPath>
</defs>
</svg>
