<svg width="154" height="54" viewBox="0 0 154 54" fill="none" xmlns="http://www.w3.org/2000/svg">
<path d="M23 3.02246H29.9238V4.21875H27.2188V10H25.7051V4.21875H23V3.02246ZM33.7471 3.02246H39.5381L40.2949 4.21875H40.8564V8.80371H40.2949L39.5381 10H33.7471L32.9951 8.80371H32.4336V4.21875H32.9951L33.7471 3.02246ZM33.9424 4.21875V8.80371H39.3428V4.21875H33.9424ZM43.3613 3.02246H50.2852V4.21875H47.5801V10H46.0664V4.21875H43.3613V3.02246ZM57.292 3.02246H58.9033L63.4053 10H61.6084L58.0977 4.46289L54.5918 10H52.7949L57.292 3.02246ZM65.7832 3.02246H67.292V8.80371H72.707V10H65.7832V3.02246ZM81.584 3.02246H88.0781L88.835 4.21875H89.3916V7.00195H87.2578L89.7822 10H87.8389L85.4121 7.00195H83.0928V10H81.584V3.02246ZM83.0928 4.21875V5.80566H87.8828V4.21875H83.0928ZM92.1309 3.02246H99.0547V4.21875H93.6396V5.78613H98.4443V6.98242H93.6396V8.80371H99.0547V10H92.1309V3.02246ZM102.878 3.02246H109.372V4.21875H103.073V8.80371H109.372V10H102.878L102.126 8.80371H101.564V4.21875H102.126L102.878 3.02246ZM113.181 3.02246H118.972L119.729 4.21875H120.29V8.80371H119.729L118.972 10H113.181L112.429 8.80371H111.867V4.21875H112.429L113.181 3.02246ZM113.376 4.21875V8.80371H118.776V4.21875H113.376ZM122.795 3.02246H129.289L130.046 4.21875H130.603V7.00195H128.469L130.993 10H129.05L126.623 7.00195H124.304V10H122.795V3.02246ZM124.304 4.21875V5.80566H129.094V4.21875H124.304ZM133.342 3.02246H139.836L140.593 4.21875H141.149V8.80371H140.593L139.836 10H133.342V3.02246ZM134.851 4.21875V8.80371H139.641V4.21875H134.851ZM144.978 3.02246H151.472V4.21875H145.173V5.80566H151.472V8.80371H150.915L150.158 10H143.664V8.80371H149.963V7.00195H143.664V4.21875H144.226L144.978 3.02246ZM24.3135 15.0225H30.8076V16.2188H24.5088V20.8037H30.8076V22H24.3135L23.5615 20.8037H23V16.2188H23.5615L24.3135 15.0225ZM34.6162 15.0225H40.4072L41.1641 16.2188H41.7256V20.8037H41.1641L40.4072 22H34.6162L33.8643 20.8037H33.3027V16.2188H33.8643L34.6162 15.0225ZM34.8115 16.2188V20.8037H40.2119V16.2188H34.8115ZM51.5986 15.0078H53.4004V22H51.8867V17.2344L49.2842 21.3359H48.3467L45.7393 17.2344V22H44.2305V15.0176H44.2402L44.2305 15.0078H46.0322L48.8154 19.3828L51.5986 15.0078ZM55.9199 15.0225H62.4141L63.1709 16.2188H63.7275V19.3877H57.4287V22H55.9199V15.0225ZM57.4287 16.2188V18.1865H62.2188V16.2188H57.4287ZM66.2422 15.0225H67.751V20.8037H73.166V22H66.2422V15.0225ZM75.6953 15.0225H82.6191V16.2188H77.2041V17.7861H82.0088V18.9824H77.2041V20.8037H82.6191V22H75.6953V15.0225ZM85.1289 15.0225H92.0527V16.2188H89.3477V22H87.834V16.2188H85.1289V15.0225ZM94.5625 15.0225H101.486V16.2188H96.0713V17.7861H100.876V18.9824H96.0713V20.8037H101.486V22H94.5625V15.0225ZM103.996 15.0225H110.49L111.247 16.2188H111.804V20.8037H111.247L110.49 22H103.996V15.0225ZM105.505 16.2188V20.8037H110.295V16.2188H105.505Z" fill="#A6A6A6"/>
<path d="M23.4512 47.2725C23.4512 46.7074 23.6198 46.2015 23.957 45.7549C24.2943 45.3037 24.75 44.9688 25.3242 44.75C24.8958 44.5176 24.5586 44.2145 24.3125 43.8408C24.071 43.4671 23.9502 43.0615 23.9502 42.624C23.9502 41.8493 24.2533 41.234 24.8594 40.7783C25.4655 40.318 26.2835 40.0879 27.3135 40.0879C28.348 40.0879 29.1683 40.3226 29.7744 40.792C30.3805 41.2614 30.6836 41.8994 30.6836 42.7061C30.6836 43.139 30.5719 43.5355 30.3486 43.8955C30.1253 44.2555 29.8177 44.5404 29.4258 44.75C29.9681 44.9688 30.3965 45.2969 30.7109 45.7344C31.0299 46.1719 31.1895 46.6686 31.1895 47.2246C31.1895 48.1042 30.8408 48.8037 30.1436 49.3232C29.4508 49.8382 28.512 50.0957 27.3271 50.0957C26.1423 50.0957 25.1989 49.8428 24.4971 49.3369C23.7998 48.8265 23.4512 48.1383 23.4512 47.2725ZM25.5361 47.0332C25.5361 47.4798 25.6911 47.8262 26.001 48.0723C26.3109 48.3138 26.7529 48.4346 27.3271 48.4346C27.8968 48.4346 28.3366 48.3138 28.6465 48.0723C28.9609 47.8307 29.1182 47.4889 29.1182 47.0469C29.1182 46.6139 28.9609 46.2767 28.6465 46.0352C28.332 45.7936 27.8877 45.6729 27.3135 45.6729C26.7484 45.6729 26.3109 45.7913 26.001 46.0283C25.6911 46.2653 25.5361 46.6003 25.5361 47.0332ZM25.8027 42.8154C25.8027 43.1937 25.9349 43.4876 26.1992 43.6973C26.4635 43.9023 26.8395 44.0049 27.3271 44.0049C27.8102 44.0049 28.1816 43.9023 28.4414 43.6973C28.7057 43.4876 28.8379 43.1937 28.8379 42.8154C28.8379 42.4281 28.7057 42.1318 28.4414 41.9268C28.1816 41.7171 27.8102 41.6123 27.3271 41.6123C26.8395 41.6123 26.4635 41.7171 26.1992 41.9268C25.9349 42.1318 25.8027 42.4281 25.8027 42.8154ZM32.0918 47.2725C32.0918 46.7074 32.2604 46.2015 32.5977 45.7549C32.9349 45.3037 33.3906 44.9688 33.9648 44.75C33.5365 44.5176 33.1992 44.2145 32.9531 43.8408C32.7116 43.4671 32.5908 43.0615 32.5908 42.624C32.5908 41.8493 32.8939 41.234 33.5 40.7783C34.1061 40.318 34.9242 40.0879 35.9541 40.0879C36.9886 40.0879 37.8089 40.3226 38.415 40.792C39.0212 41.2614 39.3242 41.8994 39.3242 42.7061C39.3242 43.139 39.2126 43.5355 38.9893 43.8955C38.766 44.2555 38.4583 44.5404 38.0664 44.75C38.6087 44.9688 39.0371 45.2969 39.3516 45.7344C39.6706 46.1719 39.8301 46.6686 39.8301 47.2246C39.8301 48.1042 39.4814 48.8037 38.7842 49.3232C38.0915 49.8382 37.1527 50.0957 35.9678 50.0957C34.7829 50.0957 33.8395 49.8428 33.1377 49.3369C32.4404 48.8265 32.0918 48.1383 32.0918 47.2725ZM34.1768 47.0332C34.1768 47.4798 34.3317 47.8262 34.6416 48.0723C34.9515 48.3138 35.3936 48.4346 35.9678 48.4346C36.5374 48.4346 36.9772 48.3138 37.2871 48.0723C37.6016 47.8307 37.7588 47.4889 37.7588 47.0469C37.7588 46.6139 37.6016 46.2767 37.2871 46.0352C36.9727 45.7936 36.5283 45.6729 35.9541 45.6729C35.389 45.6729 34.9515 45.7913 34.6416 46.0283C34.3317 46.2653 34.1768 46.6003 34.1768 47.0332ZM34.4434 42.8154C34.4434 43.1937 34.5755 43.4876 34.8398 43.6973C35.1042 43.9023 35.4801 44.0049 35.9678 44.0049C36.4508 44.0049 36.8223 43.9023 37.082 43.6973C37.3464 43.4876 37.4785 43.1937 37.4785 42.8154C37.4785 42.4281 37.3464 42.1318 37.082 41.9268C36.8223 41.7171 36.4508 41.6123 35.9678 41.6123C35.4801 41.6123 35.1042 41.7171 34.8398 41.9268C34.5755 42.1318 34.4434 42.4281 34.4434 42.8154ZM40.8691 45.2695C40.8691 43.6973 41.2656 42.4417 42.0586 41.5029C42.8516 40.5596 43.9111 40.0879 45.2373 40.0879C45.7568 40.0879 46.2923 40.1608 46.8438 40.3066C47.3997 40.4479 47.8805 40.637 48.2861 40.874L47.4658 42.4531C46.8688 42.0339 46.1715 41.8242 45.374 41.8242C44.5583 41.8242 43.943 42.084 43.5283 42.6035C43.1136 43.123 42.9176 43.8385 42.9404 44.75C43.46 43.9661 44.278 43.5742 45.3945 43.5742C46.3516 43.5742 47.1126 43.8636 47.6777 44.4424C48.2428 45.0166 48.5254 45.7868 48.5254 46.7529C48.5254 47.7783 48.2018 48.5918 47.5547 49.1934C46.9076 49.7949 46.0462 50.0957 44.9707 50.0957C43.6947 50.0957 42.6921 49.6673 41.9629 48.8105C41.2337 47.9538 40.8691 46.7734 40.8691 45.2695ZM43.2207 46.7803C43.2116 47.1995 43.3483 47.5573 43.6309 47.8535C43.918 48.1452 44.3327 48.291 44.875 48.291C45.3763 48.291 45.7728 48.1543 46.0645 47.8809C46.3607 47.6074 46.5088 47.2269 46.5088 46.7393C46.5088 46.2699 46.3675 45.9007 46.085 45.6318C45.807 45.363 45.4219 45.2285 44.9297 45.2285C44.3965 45.2285 43.9749 45.3766 43.665 45.6729C43.3597 45.9645 43.2116 46.3337 43.2207 46.7803ZM49.373 43.4307C49.373 42.4053 49.6943 41.5918 50.3369 40.9902C50.9795 40.3887 51.834 40.0879 52.9004 40.0879C54.1764 40.0879 55.1768 40.5186 55.9014 41.3799C56.626 42.2367 56.9883 43.417 56.9883 44.9209C56.9883 46.4932 56.5941 47.7487 55.8057 48.6875C55.0173 49.6263 53.9554 50.0957 52.6201 50.0957C52.1006 50.0957 51.5651 50.0251 51.0137 49.8838C50.4668 49.7425 49.9928 49.5488 49.5918 49.3027L50.4189 47.7305C51.016 48.1497 51.7064 48.3594 52.4902 48.3594C53.306 48.3594 53.9167 48.0996 54.3223 47.5801C54.7324 47.0605 54.9307 46.3405 54.917 45.4199C54.402 46.2129 53.5885 46.6094 52.4766 46.6094C51.5286 46.6094 50.7744 46.3223 50.2139 45.748C49.6533 45.1693 49.373 44.3968 49.373 43.4307ZM51.3691 43.4512C51.3691 43.9206 51.5081 44.2897 51.7861 44.5586C52.0687 44.8275 52.4538 44.9619 52.9414 44.9619C53.4701 44.9619 53.887 44.8161 54.1924 44.5244C54.4977 44.2282 54.6504 43.8545 54.6504 43.4033C54.6504 42.9795 54.5091 42.6195 54.2266 42.3232C53.944 42.027 53.5339 41.8789 52.9961 41.8789C52.4948 41.8789 52.0983 42.0179 51.8066 42.2959C51.515 42.5739 51.3691 42.959 51.3691 43.4512Z" fill="black"/>
<circle cx="7.5" cy="7.5" r="7.5" fill="#6B65ED"/>
<path d="M4.71191 4.95996C5.62988 4.2666 6.56413 3.91992 7.51465 3.91992C8.22103 3.91992 8.79557 4.08594 9.23828 4.41797C9.68099 4.75 9.90234 5.18783 9.90234 5.73145C9.90234 6.08301 9.78516 6.44922 9.55078 6.83008C9.31966 7.20768 8.99089 7.61784 8.56445 8.06055L6.93359 9.67188H10.1562V11H4.89258V9.91113L7.48535 7.24023C7.71647 7.00911 7.90039 6.78125 8.03711 6.55664C8.17383 6.33203 8.24219 6.13672 8.24219 5.9707C8.24219 5.74609 8.15755 5.57194 7.98828 5.44824C7.82227 5.32129 7.58789 5.25781 7.28516 5.25781C6.98893 5.25781 6.66829 5.33757 6.32324 5.49707C5.98145 5.65332 5.65104 5.86816 5.33203 6.1416L4.71191 4.95996Z" fill="white"/>
</svg>
